<svg width="65" height="33" viewBox="0 0 65 33" fill="none" xmlns="http://www.w3.org/2000/svg">
<path d="M8.07386 32.288C5.81786 32.288 4.00586 31.58 2.63786 30.164C1.29386 28.748 0.621859 26.804 0.621859 24.332V10.076C0.621859 7.004 1.23386 4.688 2.45786 3.128C3.68186 1.568 5.60186 0.787998 8.21786 0.787998C10.4979 0.787998 12.3339 1.412 13.7259 2.66C15.1179 3.908 15.8139 5.708 15.8139 8.06V13.388H9.65786V8.816C9.65786 7.928 9.54986 7.316 9.33386 6.98C9.11786 6.644 8.74586 6.476 8.21786 6.476C7.66586 6.476 7.28186 6.668 7.06586 7.052C6.87386 7.436 6.77786 8 6.77786 8.744V24.26C6.77786 25.076 6.89786 25.676 7.13786 26.06C7.37786 26.42 7.73786 26.6 8.21786 26.6C9.17786 26.6 9.65786 25.82 9.65786 24.26V18.68H15.8859V24.512C15.8859 29.696 13.2819 32.288 8.07386 32.288ZM17.9246 32V1.076H30.3086V7.052H24.2246V13.064H30.0566V18.896H24.2246V25.988H30.7046V32H17.9246ZM40.1406 32.288C37.6446 32.288 35.7486 31.532 34.4526 30.02C33.1566 28.484 32.5086 26.336 32.5086 23.576V8.852C32.5086 6.188 33.1566 4.184 34.4526 2.84C35.7486 1.472 37.6446 0.787998 40.1406 0.787998C42.6366 0.787998 44.5326 1.472 45.8286 2.84C47.1246 4.184 47.7726 6.188 47.7726 8.852V23.576C47.7726 26.36 47.1246 28.508 45.8286 30.02C44.5326 31.532 42.6366 32.288 40.1406 32.288ZM40.1406 26.6C40.6926 26.6 41.0646 26.36 41.2566 25.88C41.4486 25.4 41.5446 24.728 41.5446 23.864V8.744C41.5446 8.072 41.4486 7.532 41.2566 7.124C41.0886 6.692 40.7286 6.476 40.1766 6.476C39.1446 6.476 38.6286 7.256 38.6286 8.816V23.9C38.6286 24.788 38.7366 25.46 38.9526 25.916C39.1686 26.372 39.5646 26.6 40.1406 26.6ZM57.6124 32.288C54.8044 32.288 52.7764 31.592 51.5284 30.2C50.2804 28.808 49.6564 26.564 49.6564 23.468V20.444H55.7404V24.296C55.7404 25.832 56.2324 26.6 57.2164 26.6C57.7684 26.6 58.1524 26.444 58.3684 26.132C58.5844 25.796 58.6924 25.244 58.6924 24.476C58.6924 23.468 58.5724 22.64 58.3324 21.992C58.0924 21.32 57.7804 20.768 57.3964 20.336C57.0364 19.88 56.3764 19.184 55.4164 18.248L52.7524 15.584C50.6884 13.568 49.6564 11.336 49.6564 8.888C49.6564 6.248 50.2564 4.244 51.4564 2.876C52.6804 1.484 54.4564 0.787998 56.7844 0.787998C59.5684 0.787998 61.5724 1.532 62.7964 3.02C64.0204 4.484 64.6324 6.788 64.6324 9.932H58.3324L58.2964 7.808C58.2964 7.4 58.1764 7.076 57.9364 6.836C57.7204 6.596 57.4084 6.476 57.0004 6.476C56.5204 6.476 56.1604 6.608 55.9204 6.872C55.6804 7.136 55.5604 7.496 55.5604 7.952C55.5604 8.96 56.1364 10.004 57.2884 11.084L60.8884 14.54C61.7284 15.356 62.4244 16.136 62.9764 16.88C63.5284 17.6 63.9724 18.464 64.3084 19.472C64.6444 20.456 64.8124 21.632 64.8124 23C64.8124 26.048 64.2484 28.364 63.1204 29.948C62.0164 31.508 60.1804 32.288 57.6124 32.288Z" fill="#03A9F5"/>
</svg>
