<svg width="29" height="33" viewBox="0 0 29 33" fill="none" xmlns="http://www.w3.org/2000/svg">
<path d="M19.84 5.08499C18.295 4.28499 16.217 3.09099 14.307 2.03999L3.058 8.58499L14.323 15.128C16.423 13.884 18.484 12.667 20.542 11.448C22.4933 10.2913 24.446 9.13466 26.4 7.97799C26.6369 7.82304 26.8901 7.69461 27.155 7.59499C27.2949 7.53882 27.4458 7.51561 27.5961 7.52716C27.7464 7.5387 27.892 7.58469 28.0217 7.66156C28.1514 7.73843 28.2616 7.84412 28.3438 7.97044C28.4261 8.09676 28.4782 8.24032 28.496 8.38999C28.5377 8.70248 28.5514 9.01807 28.537 9.33299C28.544 13.903 28.531 18.474 28.569 23.044C28.5802 23.4369 28.4736 23.8241 28.263 24.1559C28.0524 24.4877 27.7473 24.7489 27.387 24.906C23.895 26.9267 20.4097 28.958 16.931 31C16.387 31.318 15.831 31.612 15.3 31.957C15.0051 32.1692 14.6513 32.2841 14.2879 32.2858C13.9246 32.2874 13.5698 32.1756 13.273 31.966C10.316 30.22 7.341 28.504 4.373 26.778C3.283 26.144 2.207 25.487 1.098 24.89C0.75119 24.7378 0.460428 24.4813 0.266151 24.1562C0.0718733 23.8311 -0.0162627 23.4535 0.014 23.076C0.049 21.469 0 19.861 0 18.254C0 17.923 0 18.395 0 17.325C1.257 17.31 2.007 17.825 2.017 18.919C2.03 20.302 2.017 21.686 2.017 23.091L14.3 30.212L26.486 23.133V10.27C25.486 10.847 24.586 11.347 23.708 11.87C20.949 13.517 18.184 15.156 15.446 16.838C15.1291 17.0693 14.7484 17.1969 14.3561 17.2032C13.9637 17.2094 13.5791 17.0941 13.255 16.873C9.3 14.524 5.33 12.2 1.366 9.86999C1.257 9.80599 1.155 9.73199 1.05 9.66099C-0.011 8.93999 -0.04 8.14199 1.067 7.47399C3.44 6.04099 5.848 4.66499 8.243 3.27399C9.931 2.29099 11.631 1.32899 13.308 0.327992C13.5784 0.135136 13.8984 0.0237095 14.2301 0.00687541C14.5618 -0.00995868 14.8914 0.0685033 15.18 0.232992C17.1053 1.30766 19.0283 2.38699 20.949 3.47099C21.139 3.57799 22.137 4.14599 22.269 4.22999C22.0323 4.63865 21.6574 4.94934 21.2118 5.1061C20.7663 5.26285 20.2795 5.25537 19.839 5.08499" fill="#2979FF"/>
<path d="M8.01398 19.932L7.96997 17.538L13.332 20.503L13.376 22.897L8.01398 19.932Z" fill="#FF9100"/>
<path d="M9.59698 24.977L9.55298 22.583L13.259 24.707L13.303 27.101L9.59698 24.977Z" fill="#FF9100"/>
</svg>
