<svg xmlns="http://www.w3.org/2000/svg" width="77" height="77" viewBox="0 0 77 77"><defs><style>.a{fill:#a9b1c6;opacity:0.129;}.a,.d{fill-rule:evenodd;}.b{fill:#1522ed;stroke:#135af7;}.b,.e{stroke-width:0.5px;}.c,.d{fill:#00d280;}.e{fill:#135af7;stroke:#1522ed;}</style></defs><g transform="translate(-1213 -1726)"><path class="a" d="M118.5,64A38.5,38.5,0,1,1,80,102.5,38.5,38.5,0,0,1,118.5,64Z" transform="translate(1133 1662)"/><g transform="translate(59.015 -519.939)"><path class="b" d="M20.3,31.622a6.424,6.424,0,0,1-3.378,1.653,21.541,21.541,0,0,1-3.822.355c.363-.466.063-.811-.182-1.235,3.647-.079,5.736-.5,6.921-2.153a3.125,3.125,0,0,0,.266,1.07A1.274,1.274,0,0,0,20.3,31.622Zm2.2-7.4a1.017,1.017,0,0,0-.547-.107s-.521-.225-.7.051l-.011.017c.064-1.255.085-2.7.085-4.361,0-11.515-5.505-18.58-10.041-18.58S1.255,8.3,1.255,19.818c0,1.6.02,3,.078,4.216a1.84,1.84,0,0,0-.653-.54.745.745,0,0,0-.626-.024C.016,22.4,0,21.192,0,19.818A27.686,27.686,0,0,1,3.5,5.574C5.61,2.09,8.473,0,11.3,0s5.686,2.09,7.8,5.574a27.686,27.686,0,0,1,3.5,14.244C22.592,21.521,22.567,22.971,22.505,24.218ZM9.712,33.635a22.313,22.313,0,0,1-4.043-.36A6.27,6.27,0,0,1,2.1,31.427a4.422,4.422,0,0,0,.328-.335,1.2,1.2,0,0,0,.337-.824C3.944,31.877,6,32.306,9.545,32.393a1,1,0,0,0,.07.758A1.546,1.546,0,0,0,9.712,33.635Z" transform="translate(1170.985 2278.914) rotate(-45)"/><ellipse class="c" cx="3.16" cy="3.122" rx="3.16" ry="3.122" transform="translate(1183.751 2280.322) rotate(-45)"/><path class="c" d="M3.975,7.845A3.949,3.949,0,0,1,0,3.922,3.949,3.949,0,0,1,3.975,0,3.949,3.949,0,0,1,7.949,3.922,3.949,3.949,0,0,1,3.975,7.845Zm0-1.239A2.684,2.684,0,1,0,1.255,3.922,2.7,2.7,0,0,0,3.975,6.606Z" transform="translate(1182.941 2280.557) rotate(-45)"/><path class="d" d="M0,.287A.289.289,0,0,1,.293,0,.289.289,0,0,1,.585.287V2.215A.289.289,0,0,1,.293,2.5.289.289,0,0,1,0,2.215Zm4.291,0a.293.293,0,0,1,.585,0V2.215a.293.293,0,0,1-.585,0ZM2.146.771a.293.293,0,0,1,.585,0V3.657a.293.293,0,0,1-.585,0Z" transform="translate(1191.404 2286.807) rotate(-45)"/><rect class="b" width="1.255" height="4.955" rx="0.628" transform="translate(1175.901 2268.742) rotate(-45)"/><path class="e" d="M2.3,11.561h0A1.841,1.841,0,0,1,.752,10.7,3.662,3.662,0,0,1,.246,9.392,17.268,17.268,0,0,1,0,5.987,20.527,20.527,0,0,1,.24,2.4a4.507,4.507,0,0,1,.46-1.4A1.809,1.809,0,0,1,2.3,0,1.809,1.809,0,0,1,3.9,1.008a4.507,4.507,0,0,1,.46,1.4A20.525,20.525,0,0,1,4.6,5.987a17.267,17.267,0,0,1-.246,3.4A3.662,3.662,0,0,1,3.85,10.7a1.841,1.841,0,0,1-1.549.861Zm0-1.239c.809,0,1.046-1.713,1.046-4.335S3.11,1.239,2.3,1.239,1.255,3.364,1.255,5.987s.237,4.335,1.046,4.335Z" transform="translate(1195.592 2290.801) rotate(-45)"/><path class="e" d="M5.045,10.4h0C3.74,11.6,2.933,12.12,1.926,11.991A2,2,0,0,1,.294,10.563,6.8,6.8,0,0,1,0,8.3,12.878,12.878,0,0,1,1.282,2.961C2.127,1.175,3.06,0,4.19,0A2.323,2.323,0,0,1,6.378,1.529,9.987,9.987,0,0,1,6.91,5.367c0,.4.012,1.646.009,1.883a3.631,3.631,0,0,1-.185,1.311A2.486,2.486,0,0,1,5.974,9.6s-.665.565-.929.807ZM4.19,9.5C5.885,7.94,5.655,8.788,5.655,5.367S5,1.239,4.19,1.239,1.255,4.877,1.255,8.3,2.5,11.052,4.19,9.5Z" transform="translate(1184.375 2297.639) rotate(-45)"/><path class="e" d="M1.874,10.4h0C1.61,10.16.944,9.594.945,9.6a2.487,2.487,0,0,1-.76-1.034A3.634,3.634,0,0,1,0,7.251C0,7.014.01,5.764.01,5.367A9.988,9.988,0,0,1,.542,1.529,2.323,2.323,0,0,1,2.729,0C3.86,0,4.792,1.175,5.637,2.961A12.877,12.877,0,0,1,6.919,8.3a6.8,6.8,0,0,1-.294,2.266,2,2,0,0,1-1.633,1.428c-1.007.129-1.814-.39-3.119-1.588ZM2.729,9.5h0c1.694,1.556,2.935,2.222,2.935-1.2S3.538,1.239,2.729,1.239s-1.464.708-1.464,4.129S1.035,7.94,2.729,9.5Z" transform="translate(1201.267 2281.779) rotate(-45)"/></g></g></svg>