<svg xmlns="http://www.w3.org/2000/svg" width="77" height="77" viewBox="0 0 77 77"><defs><style>.a{fill:#a9b1c6;opacity:0.129;}.a,.c,.d,.f,.g{fill-rule:evenodd;}.b{fill:#181818;opacity:0;}.c,.d,.e,.f,.g{fill:none;stroke-width:2px;}.c,.g{stroke:#135af7;}.d,.e,.f{stroke:#00d280;}.d,.e,.f,.g{stroke-linejoin:round;}.e,.f,.g{stroke-linecap:round;}</style></defs><g transform="translate(-324 -1063)"><path class="a" d="M118.5,64A38.5,38.5,0,1,1,80,102.5,38.5,38.5,0,0,1,118.5,64Z" transform="translate(244 999)"/><g transform="translate(343 1081)"><g transform="translate(-658 -146)"><g transform="translate(595 116)"><g transform="translate(61 29)"><rect class="b" width="44" height="44"/><path class="c" d="M34,11h4.994A2,2,0,0,1,41,12.992V39.008A2,2,0,0,1,39,41H5a2,2,0,0,1-2-1.992V12.992A2,2,0,0,1,5,11H26"/><path class="d" d="M16,25V21L33.587,3.413a2,2,0,0,1,2.823,0L37.59,4.59a2,2,0,0,1,0,2.823L20,25Z"/><circle class="e" cx="2" cy="2" r="2" transform="translate(7 24)"/><path class="f" d="M16,25l-1,1"/><path class="g" d="M9,20V16"/><path class="g" d="M9,36V32"/></g></g></g></g></g></svg>