<svg xmlns="http://www.w3.org/2000/svg" xmlns:xlink="http://www.w3.org/1999/xlink" width="961.65" height="702.364" viewBox="0 0 961.65 702.364"><defs><style>.a,.aa,.h,.m{fill:none;}.b{fill:#eeeff2;}.c{clip-path:url(#a);}.d{fill:#f4f5f9;}.e{fill:#8ab8ee;}.f{fill:#4689d7;}.g{fill:#fff;}.h{stroke:#e8e9f9;stroke-linecap:round;stroke-linejoin:round;stroke-width:0.9px;}.i,.j{fill:#09cb7f;}.i{opacity:0.1;}.k{fill:#cdd1d8;}.l{fill:#3d415b;}.aa,.m{stroke:#3d415b;stroke-miterlimit:10;}.m{stroke-width:2.5px;}.n{fill:#e3bc9a;}.o{fill:#fcd6cb;}.p{fill:#7c6ef2;}.q{fill:#3b317e;}.r{fill:#2f0b6c;}.s{fill:#135af7;}.t{fill:#300c6c;}.u{fill:#41378b;}.v{fill:#a9c9fa;}.w{fill:#82a7e7;}.x{fill:#ecf2f5;}.y{fill:#0db976;}.z{fill:#3d3485;}.aa{stroke-width:2px;}</style><clipPath id="a"><path class="a" d="M543.9,235.226C415.006,157.344,354.165-81.947,155.236,61.037s-116.525,436.8,74.071,507.844,435.978,30.906,505-100.9C852.405,242.252,630.38,287.472,543.9,235.226Z" transform="translate(-40.471 -16.381)"/></clipPath></defs><g transform="translate(0.45)"><path class="b" d="M543.9,235.226C415.006,157.344,354.165-81.947,155.236,61.037s-116.525,436.8,74.071,507.844,435.978,30.906,505-100.9C852.405,242.252,630.38,287.472,543.9,235.226Z" transform="translate(109.094 44.837)"/><g class="c" transform="translate(141.565 61.218)"><path class="d" d="M35.28,388.913S145.19,278.7,328.76,331.024,620.259,338.5,597.649,61.35c0,0,257.865,35.989,224.94,219.335C782.452,503.27,264.219,588.179,35.28,388.913Z" transform="translate(-46.679 106.707)"/></g><path class="e" d="M292.14,40.1V147.584a16.78,16.78,0,0,1-16.78,16.78H46.16a16.78,16.78,0,0,1-16.78-16.78V40.1A16.743,16.743,0,0,1,46.16,23.36h229.2A16.743,16.743,0,0,1,292.14,40.1Z" transform="translate(78.736 63.94)"/><path class="f" d="M292.14,40.1v9.306H29.38V40.1A16.743,16.743,0,0,1,46.16,23.36h229.2A16.743,16.743,0,0,1,292.14,40.1Z" transform="translate(78.736 63.94)"/><circle class="g" cx="3.513" cy="3.513" r="3.513" transform="translate(119.403 98.063)"/><path class="g" d="M43.2,29.78a3.513,3.513,0,1,1-1.015-2.508A3.513,3.513,0,0,1,43.2,29.78Z" transform="translate(97.322 71.796)"/><path class="g" d="M46.966,29.78a3.513,3.513,0,1,1-1.015-2.508A3.513,3.513,0,0,1,46.966,29.78Z" transform="translate(107.641 71.796)"/><rect class="g" width="59.01" height="48.92" rx="0.83" transform="translate(140.704 128.932)"/><path class="g" d="M234.8,59.194H40.837A3.737,3.737,0,0,1,37.1,55.457h0a3.737,3.737,0,0,1,3.737-3.737H234.8a3.737,3.737,0,0,1,3.737,3.737h0A3.737,3.737,0,0,1,234.8,59.194Z" transform="translate(99.867 141.566)"/><path class="g" d="M178.958,51.7H61.237A3.737,3.737,0,0,1,57.5,47.967h0a3.737,3.737,0,0,1,3.737-3.737H178.958a3.737,3.737,0,0,1,3.737,3.737h0A3.737,3.737,0,0,1,178.958,51.7Z" transform="translate(155.706 121.065)"/><path class="g" d="M134.112,44.664H61.237A3.737,3.737,0,0,1,57.5,40.927h0a3.737,3.737,0,0,1,3.737-3.737h72.875a3.737,3.737,0,0,1,3.737,3.737h0A3.737,3.737,0,0,1,134.112,44.664Z" transform="translate(155.706 101.795)"/><path class="h" d="M.45,101.886A94.247,94.247,0,0,1,7.364,94.6c4.709-3.924,10.09-11.4,27.468-5.98a39.353,39.353,0,0,1,3.961,1.532A12.744,12.744,0,0,0,50,86.975C57.7,80.846,60.731,76.212,71.269,76.1c12.3,0,14.2,15.136,23.768,19.06,6.054,2.467,22.087,4.97,25.413,6.054Z" transform="translate(-0.45 208.299)"/><path class="i" d="M174.82,61.2a189.921,189.921,0,0,1,13.6-14.127c9.268-8,19.919-22.124,54-11.7a72.237,72.237,0,0,1,7.811,2.878c2.99,1.271,12.3,1.308,21.825-6.241C287.234,19.982,293.139,10.9,313.88,10.6c24.142-.3,27.954,29.9,46.715,37.372,11.959,4.9,43.426,9.791,49.966,11.959Z" transform="translate(476.83 29.012)"/><path class="g" d="M134.635,51.84l-1.719-4.97-1.756,4.97a17.266,17.266,0,0,1-9.679,9.866h0a17.341,17.341,0,0,1,9.679,9.829l1.756,5.008,1.719-5.008a17.565,17.565,0,0,1,9.679-9.829h0a17.49,17.49,0,0,1-9.679-9.866Z" transform="translate(330.83 128.291)"/><path class="g" d="M92.378,128.168l-1.719-5.008-1.57,5.008A17.453,17.453,0,0,1,79.41,138h0a17.377,17.377,0,0,1,9.679,9.866l1.756,4.97,1.719-4.97A17.378,17.378,0,0,1,102.244,138h0A17.453,17.453,0,0,1,92.378,128.168Z" transform="translate(215.677 337.11)"/><path class="g" d="M215.488,118.869l-1.159-3.289-1.158,3.289a11.473,11.473,0,0,1-6.391,6.5h0a11.212,11.212,0,0,1,6.391,6.5l1.158,3.289,1.159-3.289a11.211,11.211,0,0,1,6.353-6.5h0a11.4,11.4,0,0,1-6.353-6.5Z" transform="translate(564.31 316.362)"/><path class="g" d="M68.88,74.579,67.722,71.29,66.6,74.579a11.585,11.585,0,0,1-6.391,6.5h0a11.473,11.473,0,0,1,6.391,6.5l1.121,3.289,1.159-3.289a11.473,11.473,0,0,1,6.391-6.5h0A11.585,11.585,0,0,1,68.88,74.579Z" transform="translate(163.123 195.133)"/><path class="j" d="M250.088,0H141a10.8,10.8,0,0,0-10.8,10.763V69.7A10.763,10.763,0,0,0,141,80.424h5.867v26.982l26.945-26.982h76.276A10.726,10.726,0,0,0,260.852,69.7V10.763A10.763,10.763,0,0,0,250.088,0Z" transform="translate(354.698)"/><path class="g" d="M139.917,15.45h25.749a3.737,3.737,0,0,1,3.737,3.737h0a3.737,3.737,0,0,1-3.737,3.737H139.917a3.737,3.737,0,0,1-3.737-3.737h0a3.737,3.737,0,0,1,3.737-3.737Z" transform="translate(371.066 42.289)"/><path class="g" d="M139.917,10.63h47.425a3.737,3.737,0,0,1,3.737,3.737h0a3.737,3.737,0,0,1-3.737,3.737H139.917a3.737,3.737,0,0,1-3.737-3.737h0A3.737,3.737,0,0,1,139.917,10.63Z" transform="translate(371.066 29.096)"/><path class="g" d="M139.917,6h81.545A3.737,3.737,0,0,1,225.2,9.737h0a3.737,3.737,0,0,1-3.737,3.737H139.917a3.737,3.737,0,0,1-3.737-3.737h0A3.737,3.737,0,0,1,139.917,6Z" transform="translate(371.066 16.423)"/><path class="k" d="M144.18,306.6H270.571a49.742,49.742,0,0,0,49.405-44.285l18.2-189.587H211.86l-2.579,109.91Z" transform="translate(392.963 199.074)"/><path class="l" d="M145.634,306.6c32.439-1.308,64.915-1.869,97.166-2.392l24.329-.187h5.942a39.089,39.089,0,0,0,5.494-.561,40.848,40.848,0,0,0,10.5-3.064,45.407,45.407,0,0,0,26.609-32.7c.673-3.363.972-7.474,1.383-11.623l1.2-12.108,2.354-24.217c1.532-16.145,3.326-32.289,5.008-48.4,3.4-32.289,6.951-64.541,10.875-96.755a2.891,2.891,0,1,1,5.755.561c-2.28,32.4-4.933,64.728-7.773,97.166-1.383,16.182-2.728,32.364-4.3,48.583L327.9,245.12l-1.121,12.146c-.411,4.036-.635,7.923-1.458,12.52A54.076,54.076,0,0,1,292.8,309.474a50.975,50.975,0,0,1-12.819,3.513,43.971,43.971,0,0,1-6.652.561H242.8c-32.439-.523-64.915-1.084-97.166-2.392a1.981,1.981,0,0,1-1.943-2.13,2.018,2.018,0,0,1,1.943-2.429Z" transform="translate(391.509 197.025)"/><line class="m" y2="133.903" transform="translate(609.383 509.227)"/><rect class="l" width="407.165" height="6.316" transform="translate(633.226 390.123) rotate(180)"/><path class="n" d="M174.093,178.85l4.335,15.509-21.04,6.391-6.577-19.134Z" transform="translate(411.111 489.543)"/><path class="n" d="M123.05,175.85v12.445H141.7l2.055-12.445Z" transform="translate(335.127 481.331)"/><path class="o" d="M252.725,97.091l-28.1,69.437-.635,1.532a10.576,10.576,0,0,1-9.9,6.615L134,174.114a5.867,5.867,0,0,1-.822-11.7l79.265-11.4-10.5,8.147,18.947-72.5a16.817,16.817,0,1,1,32.551,8.3,17.224,17.224,0,0,1-.71,2.13Z" transform="translate(348.511 200.276)"/><path class="o" d="M160.916,97.091,133.56,96.53A13.005,13.005,0,0,0,121.3,110.171h40.025Z" transform="translate(330.297 264.219)"/><path class="p" d="M149.48,118.879l43.8,10.688,7.213-39.053A18.947,18.947,0,0,0,184.348,68.5h0A19.284,19.284,0,0,0,163.494,80.76Z" transform="translate(407.47 186.933)"/><path class="q" d="M274.609,102.14l-134.949,68.5a35.354,35.354,0,0,0-19.284,33.635l10.165,173.4h20.7L179.2,192.131l105.052-73.772Z" transform="translate(327.635 279.575)"/><path class="r" d="M182.53,40.4S219.9,27.656,239.746,63.159a32.774,32.774,0,0,0,3.924,5.867c4,4.709,12.333,13.416,21.526,16.257,36.512,11.212,59.795,80.2-13.043,86.366-90.925,7.474-116.749-10.277-103.744-46.49,9.268-25.861,1.009-44.211,1.009-44.211Z" transform="translate(395.909 104.49)"/><path class="s" d="M191.134,63.56l-19.4,8.633a31.579,31.579,0,0,0-18.686,29.262c.3,25.487,6.092,88.758,27.618,112.975h65.625c10.128-44.846,4.3-113.722,4.3-113.722A32.439,32.439,0,0,0,222.04,67.073Z" transform="translate(417.24 173.975)"/><path class="o" d="M177.816,109.8h0a12.557,12.557,0,0,1-13.9-10.913L158.57,57.215,183.534,54.3l5.307,41.408A12.594,12.594,0,0,1,177.816,109.8Z" transform="translate(432.351 148.628)"/><path class="o" d="M.187,0H61.925V36.624A30.383,30.383,0,0,1,31.392,67.045H30.383A30.383,30.383,0,0,1,0,36.662V0Z" transform="matrix(0.992, -0.129, 0.129, 0.992, 549.582, 174.541)"/><path class="t" d="M224.51,82.968l-5.232,10.838s-6.951,6.017-8.782-9.193C208.814,71.757,199.508,74,199.508,74S167.63,98.141,148.87,81.473c-14.949-13.08,9.119-37,36.475-42.753l35.877,15.7Z" transform="translate(393.244 105.983)"/><path class="o" d="M163.429,61.834a10.128,10.128,0,1,0,8.857-11.212,10.128,10.128,0,0,0-8.857,11.212Z" transform="translate(445.468 138.366)"/><path class="g" d="M165.592,55.975a1.882,1.882,0,1,0,3.737-.448,1.831,1.831,0,0,0-2.2-1.495A1.869,1.869,0,0,0,165.592,55.975Z" transform="translate(451.564 147.775)"/><path class="g" d="M151.74,61.437,168.931,57.7s.822,7.474-8.6,8.82a6.988,6.988,0,0,1-8.6-5.083Z" transform="translate(413.656 157.935)"/><path class="u" d="M313.227,103.93H247.452L142.475,167.462a28.776,28.776,0,0,0-11.436,36.213L211.613,386.8l23.283-2.728L191.582,207.337c36.363-1.532,103.856-7.026,121.5-26.683C342.9,147.281,313.227,103.93,313.227,103.93Z" transform="translate(350.308 284.474)"/><path class="f" d="M205.344,73.18l37.372,100.6H121.108L86.465,79.01a4.335,4.335,0,0,1,4.073-5.83Z" transform="translate(234.259 200.306)"/><path class="v" d="M118.08,73.18h5.83a7.474,7.474,0,0,1,6.989,4.9l35.466,95.709H155.526Z" transform="translate(321.523 200.306)"/><path class="w" d="M95.63,100.1H216.976v9.679H104.487A8.782,8.782,0,0,1,95.7,101v-.9Z" transform="translate(260.074 273.991)"/><path class="w" d="M128.1,109.817h75.08A4.858,4.858,0,0,0,208,104.958h0a4.858,4.858,0,0,0-4.821-4.858H128.1Z" transform="translate(348.95 273.991)"/><path class="x" d="M125.708,93.474c2.317,6.951-.448,14.127-6.2,16.032s-12.221-2.2-14.538-9.156.486-14.127,6.2-16.032a12.258,12.258,0,0,1,14.538,9.156Z" transform="translate(283.4 230.016)"/><path class="o" d="M266.465,96.106l-28.178,70.782-.635,1.57a10.726,10.726,0,0,1-9.978,6.727l-80.125-.561a5.867,5.867,0,0,1-5.867-5.942,5.942,5.942,0,0,1,4.933-5.83l79.265-11.735-10.5,8.3L234.063,85.6a16.973,16.973,0,1,1,32.887,8.409,12.441,12.441,0,0,1-.486,2.093Z" transform="translate(386.12 199.355)"/><path class="o" d="M174.609,96.941l-27.356-.561A13.155,13.155,0,0,0,135,110.245h39.95Z" transform="translate(367.766 263.808)"/><path class="p" d="M163.17,119.133l43.8,10.913,7.213-39.8a19.246,19.246,0,0,0-16.107-22.423h0a19.246,19.246,0,0,0-20.891,12.445Z" transform="translate(444.942 185.072)"/><path class="u" d="M177.889,182.23l-10.2,10.09L144.7,197.926a7.138,7.138,0,0,0-5.083,4.6l-1.159,3.326a2.5,2.5,0,0,0,2.429,3.326l73.921-1.794a4.186,4.186,0,0,0,4.073-4.522l-5.83-20.928-11.212,2.653a13.566,13.566,0,0,1-11.212-1.159l-4-2.317A7.474,7.474,0,0,0,177.889,182.23Z" transform="translate(376.931 493.189)"/><path class="u" d="M149.5,178.382l-10.2,10.09-22.984,5.606a7.213,7.213,0,0,0-5.083,4.6L110.072,202a2.5,2.5,0,0,0,2.392,3.326l66.933-1.383a4.223,4.223,0,0,0,4.074-4.522l-1.719-21.414-8.259,2.766a13.678,13.678,0,0,1-11.212-1.2l-3.961-2.28a7.25,7.25,0,0,0-8.82,1.084Z" transform="translate(299.223 482.499)"/><rect class="s" width="210.889" height="76.35" rx="3.09" transform="translate(961.2 227.631) rotate(180)"/><rect class="g" width="46.154" height="43.8" rx="0.97" transform="translate(938.217 211.374) rotate(180)"/><path class="g" d="M210.5,51.888H310.842a3.139,3.139,0,0,0,3.139-3.139h0a3.177,3.177,0,0,0-3.139-3.139H210.5a3.139,3.139,0,0,0-3.139,3.139h0a3.1,3.1,0,0,0,3.139,3.139Z" transform="translate(565.898 124.842)"/><rect class="g" width="41.296" height="6.278" rx="0.84" transform="translate(879.879 192.614) rotate(180)"/><rect class="g" width="48.135" height="6.278" rx="0.84" transform="translate(821.393 192.614) rotate(180)"/><path class="g" d="M217.219,60.389h75.229a3.177,3.177,0,0,0,3.139-3.139h0a3.139,3.139,0,0,0-3.139-3.139H217.219a3.1,3.1,0,0,0-3.139,3.139h0a3.139,3.139,0,0,0,3.139,3.139Z" transform="translate(584.292 148.108)"/><path class="y" d="M80.092,117.809s30.981,0,24.553-31.766C104.645,85.894,72.169,89.257,80.092,117.809Z" transform="translate(214.135 235.503)"/><path class="y" d="M97,117.62s-31.355,0-24.852-32.14C72.15,85.48,105.037,88.731,97,117.62Z" transform="translate(193.376 233.973)"/><path class="j" d="M85.145,125.806S62.311,102.972,89.256,82.53C89.256,82.53,110.857,109.288,85.145,125.806Z" transform="translate(206.653 225.899)"/><path class="z" d="M121.908,93.39H71.83l7.96,34.756h33.522Z" transform="translate(194.929 255.624)"/><line class="aa" y2="245.27" transform="translate(416.358 390.123)"/></g></svg>