<svg xmlns="http://www.w3.org/2000/svg" xmlns:xlink="http://www.w3.org/1999/xlink" width="710.503" height="561.14" viewBox="0 0 710.503 561.14"><defs><style>.a,.d{fill:#33624b;}.b{fill:#224031;}.c{fill:#448465;}.d,.h{opacity:0.8;}.e{opacity:0.6;}.f{fill:#f4d892;}.g{fill:#efc764;}.h{fill:#f4f8fd;}.af,.i,.y{fill:#f1a498;}.j{fill:url(#a);}.k{fill:#545454;}.l{fill:#d6d8d9;}.m,.z{fill:#5960a3;}.m{opacity:0.2;}.n{fill:#ffc52d;}.o{fill:#3a4774;}.p{fill:#9780da;}.q{fill:#fcd6cb;}.r{fill:#c2baef;}.s{fill:#fff;}.t{fill:#135af7;}.u{fill:#1522ed;}.v{fill:#00d280;}.w{fill:#ff9100;}.x{fill:#ef888b;}.y{opacity:0.7;}.aa{fill:#34406b;}.ab{fill:#283cea;}.ac{fill:#1d274a;}.ad{fill:#34416b;}.ae{fill:#bf7f79;}.ae,.af{opacity:0.5;}.ag{fill:#1b274a;}.ah{fill:#192342;}.ai{fill:#fbcd2a;}.aj{fill:#e2b31e;}.ak{fill:#344975;}</style><linearGradient id="a" x1="0.474" y1="0.859" x2="0.321" y2="0.158" gradientUnits="objectBoundingBox"><stop offset="0" stop-color="#f4f8fd"/><stop offset="1" stop-color="#fff"/></linearGradient></defs><path class="a" d="M1228.518,1041.4c-.044-.108-.115-8.6-2.27-12.611,0,0-.4-.95,0-.742a8.479,8.479,0,0,1,2.441,3.924c.46,1.84,1.039,2.11,1.784,3.338s.864,9.028.834,9.143a1.939,1.939,0,0,1-1.205,0C1230.046,1044.315,1228.518,1041.4,1228.518,1041.4Z" transform="translate(-771.292 -646.703)"/><path class="b" d="M1233.279,1046.27c0,.026-.089.052-.2.07l-2.185-8.724a23.182,23.182,0,0,0-1.68-6.706,8.664,8.664,0,0,1,1.45,2.867c.46,1.855,1.039,2.11,1.788,3.338S1233.309,1046.151,1233.279,1046.27Z" transform="translate(-773.267 -648.521)"/><path class="a" d="M1240.341,1022.532s-.59-4.492-.59-5.842a35.216,35.216,0,0,1,0-4.34c.171-.141.256-.145.256.486a97.9,97.9,0,0,0,2.389,10.438c.46.89-.23,1.81.434,4.314s2.915,5.564,1.287,5.26-4.481-1.484-4.021-3.965A33.851,33.851,0,0,0,1240.341,1022.532Z" transform="translate(-779.851 -636.797)"/><path class="b" d="M1247,1034.9c.056-.23-.694-5.634-.319-7.333s.89-2.415.69-4.822.2-5,.43-5.059.43,2.155.43,3.364.371,5.564.49,6.239S1247,1034.9,1247,1034.9Z" transform="translate(-784.192 -640.203)"/><path class="a" d="M1245.709,1026.428s.111-5.148,1.32-7.849a23.161,23.161,0,0,0,1.666-7.849c0-1.41.66-6,.66-6.306s.145-.308.345.211,0,7.3,0,9.514a53.258,53.258,0,0,1-.471,5.935c-.159,1.409-2.633,9.711-3.338,9.5s-1.58-1.335-1.321-1.621S1245.709,1026.428,1245.709,1026.428Z" transform="translate(-782.901 -631.728)"/><path class="a" d="M1271.2,1004.815s-.2-.145-.419.13-6.165,9.114-7.259,11.781l.174,3.012,2.125-4.255Z" transform="translate(-794.851 -632.082)"/><path class="c" d="M1228.26,1051.276a1.51,1.51,0,0,1-.319-.063l-.449-.111c-.7-.2-1.061.338-1.269.111-.286-.315-1.929-3.672-2.533-4.507a9.2,9.2,0,0,1-1.035-2.7,20.4,20.4,0,0,1-1.035-3.535,4.57,4.57,0,0,0-.089-1.291c-.07-.582-.156-1.161-.241-1.74-.022-.145-.093-.371-.052-.442s.071-.044.167,0c.271.156.464.768.586,1.046a6.726,6.726,0,0,0,.664,1.406,3.885,3.885,0,0,1,.66,1.209,9.96,9.96,0,0,0,.775,1.784c.319.516,1.524,2.6,1.9,3.3.234.43,1.053,2.459,1.643,3.932.022.056.041.108.063.156Z" transform="translate(-768.245 -652.323)"/><path class="c" d="M1229.694,1028.877l-1.91,1.855-.419-.03-.453-.03-.69-.048a79.436,79.436,0,0,0-.742-9.143c-.538-2.437-1.855-8.9-2.867-10.757a47.23,47.23,0,0,0-3.235-5.5s-.972-.887-.371-.95,2.415,2.244,2.912,2.674a42.617,42.617,0,0,1,3.019,5.193c.5.99,1.38,2.392,1.573,2.912s1.035,3.687,1.165,4.184a4.054,4.054,0,0,0,.475,1.484,1.115,1.115,0,0,1,.13,1.057c-.063.367.371.905.453,1.076s0,.412,0,.927.627.905.519,1.358a1.239,1.239,0,0,0,.215,1.057c.193.323-.089.582,0,1.079.03.185.071.453.107.716a2.286,2.286,0,0,0,.037.286Z" transform="translate(-766.726 -631.767)"/><path class="c" d="M1262.839,1019.119a3.152,3.152,0,0,0,.471-1.035c.06-.43.145-.345.52-.8a1.266,1.266,0,0,0,.371-.92c0-.2.026-.23.256-.49a1.723,1.723,0,0,0,.345-.864c.03-.2,0,.2.26-.286s.26-1.113.519-1.235.486-.319.516-.519-.2-.46,0-.631.371-.115.46-.319a4.194,4.194,0,0,0,.2-.775,1.605,1.605,0,0,1,.371-.6,1.055,1.055,0,0,0,.2-.516c.03-.174.479-.085.486-.371s-.093-.49,0-.634.263-.141.349-.345-.115-.371,0-.575.345-.2.4-.4a1.6,1.6,0,0,1,.26-.634c.171-.23-.059.289.345-.371s.775-1.754,1.113-1.9a.646.646,0,0,1-.145.43,12.087,12.087,0,0,0-1,2.437c-.3,1.057-3.709,6.966-4.607,9.581a45.7,45.7,0,0,1-2.444,5.935Z" transform="translate(-793.952 -632.153)"/><path class="a" d="M1264.375,1029.549s-.742-.074-1.617,1.632-2.875,5.972-3.476,6.984-1.313,6.146-2.263,6.881-.045.838.742.193,2.333-4.766,2.741-6.016c.267-.82,1.287-4.351,2.326-6.932C1263.366,1030.933,1263.841,1029.776,1264.375,1029.549Z" transform="translate(-790.506 -647.665)"/><path class="c" d="M1261.647,1030.319c-1.005,1.009-2.415,7.589-3.394,11.413s-3.453,4.548-3.535,4.573c-.174.052-1.61.315-1.61.315h-.018l.182-.071h0c2.455-1.139,4.314-6.079,4.514-6.48s0-.371,0-.6.289-.174.43-.464a2.225,2.225,0,0,0,.089-1.076c-.03-.371.141-.3.286-.5a3.175,3.175,0,0,0,.23-1.324c-.03-.315.059-.43.345-.6s.289-.6.289-1.061.141-.519.43-.779,1.235-3.1,1.64-3.68S1262.653,1029.314,1261.647,1030.319Z" transform="translate(-788.29 -647.667)"/><path class="c" d="M1250.641,1034.984c-.171.82-.337,6.035-3.709,7.574h0l-.163.07H1243c.033-.045.586-.742,1.209-1.588.2-.274.415-.568.616-.86a13.3,13.3,0,0,0,1.038-1.691,4.054,4.054,0,0,0,.549-1.855c.059-.275.23-.115.43-.49a2.8,2.8,0,0,0,.145-1.235c0-.26.43-.66.545-.864a7.362,7.362,0,0,1,.575-1.81l.16-.2h0a3.041,3.041,0,0,0,.53-.771c.2-.434,1.484-2.934,1.38-4.629s.145-3.539.371-3.449.23,2.385.286,3.361S1250.812,1034.135,1250.641,1034.984Z" transform="translate(-781.942 -643.66)"/><path class="d" d="M1243.35,1068.516a10.653,10.653,0,0,1-2.248,2.418l-.453-.03a8.6,8.6,0,0,0,2.663-2.674C1243.324,1068.315,1243.339,1068.416,1243.35,1068.516Z" transform="translate(-780.464 -671.999)"/><path class="d" d="M1238.569,1072.814l-.449-.111a11.133,11.133,0,0,1,.141-1.413c.022.056.041.108.063.156C1238.354,1071.62,1238.487,1072.384,1238.569,1072.814Z" transform="translate(-778.872 -673.924)"/><path class="a" d="M1255.9,1066.708a11.814,11.814,0,0,1-2.76,2.886,9.43,9.43,0,0,0,3.234-3.524Z" transform="translate(-788.321 -670.64)"/><g class="e" transform="translate(468.769 377.129)"><path class="b" d="M1268.849,1016.73c0,.122.045.274.041.464,0,.289-.456.2-.486.371a1.055,1.055,0,0,1-.2.516,1.607,1.607,0,0,0-.371.6,4.506,4.506,0,0,1-.2.775c-.085.2-.26.145-.46.319s.03.43,0,.631-.26.371-.516.519-.26.742-.519,1.235-.23.085-.26.286a1.726,1.726,0,0,1-.345.864c-.23.26-.26.289-.26.49a1.273,1.273,0,0,1-.371.92c-.371.46-.46.371-.519.8a3.152,3.152,0,0,1-.471,1.035l-.122.694c0-.523.141-1.88.152-1.925S1266.7,1020.491,1268.849,1016.73Z" transform="translate(-1263.79 -1016.73)"/></g><path class="f" d="M1243.081,1075.372v1.769a.215.215,0,0,1-.219.219h0a.219.219,0,0,0-.215.185l-.79,4.707a4.692,4.692,0,0,1-4.4,3.913h-2.608a4.7,4.7,0,0,1-4.644-3.98l-.716-4.644a.2.2,0,0,0-.074-.133.207.207,0,0,0-.141-.056.215.215,0,0,1-.219-.219v-1.769a.8.8,0,0,1,.8-.8H1242.3A.8.8,0,0,1,1243.081,1075.372Z" transform="translate(-773.173 -675.981)"/><path class="g" d="M1254.878,1082.11a.219.219,0,0,0-.215.185l-.79,4.707a4.692,4.692,0,0,1-4.4,3.913,7.486,7.486,0,0,0,2.051-7.207c-.393-1.41-3.338-1.6-3.338-1.6Z" transform="translate(-785.207 -680.73)"/><path class="h" d="M1404.2,1398.079s13.676,24.852-35.041,23.431-45.253-12.556-91.963-9.978-115.335,10.275-90.668-22.255S1392.9,1362.255,1404.2,1398.079Z" transform="translate(-743.147 -860.43)"/><path class="i" d="M1367.476,1222.2,1345.254,1106.7a.79.79,0,0,0-1.55.3l4.451,23.227a.786.786,0,0,0-.716-.464H1258l4.381-22.767a.79.79,0,0,0-1.551-.3L1238.606,1222.2a.79.79,0,0,0,.623.924,1.02,1.02,0,0,0,.152,0,.787.787,0,0,0,.771-.638l17.541-91.162h89.763a.786.786,0,0,0,.783-.742l17.686,91.918a.79.79,0,0,0,.775.638,1,1,0,0,0,.148,0,.79.79,0,0,0,.627-.938Z" transform="translate(-779.169 -695.81)"/><path class="j" d="M621.392,128.806c-48.854-72.274-64.237-49.348-158.7-45.509S384.1,67.31,291.908,50.608c-23.194-4.2-47.972-2.177-67.163,12.7-18.212,14.128-19.451,38.661-32.819,53.6a37.189,37.189,0,0,1-3.19,3.16c-4.941,4.318-10.961,7.144-16.692,10.36-18.887,10.634-41.02,30.85-42.285,54.311-1.269,23.568,20.238,40.431,29.158,60.271,12.83,28.561-26.706,87.72.193,109.074h0c5.827,4.614,16.973,7.993,24.266,9.358,13.405,2.511,31.313-11.35,44.411-8.223,13.431,3.208,26.91,11.28,39.589,16.873,28.09,12.393,57.222,29.036,86.7,37,30.516,8.246,60.409,6.677,91.829,4.3,19.982-1.506,40.245-3.1,58.435-10.79,17.5-7.418,35.954-15.5,55.95-17.452,25.382-2.478,52.478,11.243,75.55,1.777,44.377-18.2,43.4-83.773,38.242-118.273C666.826,219.983,649.656,170.62,621.392,128.806Z" transform="translate(-81.594 -30.626)"/><path class="h" d="M837.867,1308.38s-8.353-11.8,21.391-11.128,27.634,5.964,56.15,4.737,70.42-4.878,55.36,10.575S844.767,1325.391,837.867,1308.38Z" transform="translate(-526.403 -816.054)"/><path class="k" d="M1379.191,1096.7v.671a1.168,1.168,0,0,1-1.165,1.183H1317.31l12.982-2.033Z" transform="translate(-828.689 -689.795)"/><path class="l" d="M1301.4,1034.537l-14.362-34.021-15.631-2.5,17.025,38.55Z" transform="translate(-799.815 -627.831)"/><path class="k" d="M1291.856,1004.341c.456.964,12.853,30.92,12.853,30.92l-10.093.568-14.466-33.468Z" transform="translate(-805.313 -630.561)"/><path class="l" d="M1330.261,1096.48l48.88.193-3.735,1.217a12.709,12.709,0,0,1-3.924.623H1317.23Z" transform="translate(-828.639 -689.77)"/><path class="k" d="M1364.144,1098.468h18.936l-6.614-.668H1361.21Z" transform="translate(-856.305 -690.6)"/><path class="k" d="M1417.792,1098.468h1.321l-6.536-.668h-2.5Z" transform="translate(-887.049 -690.6)"/><ellipse class="m" cx="32.322" cy="4.867" rx="32.322" ry="4.867" transform="translate(624.093 503.276)"/><path class="n" d="M1715.371,1041.224c2.967,4.622,3.568,10.356,5.935,15.312a23.98,23.98,0,0,0,9.129,10.1,9.913,9.913,0,0,1,2.17,1.484,3.43,3.43,0,0,1,.686,2.077c.4,3.635.456,7.322.568,10.972.371,12.752.434,25.516.468,38.272v9.618h1.6c-.026-6.142-.371-12.318-.512-18.383-.371-16.235-1.743-32.682-1.09-48.88.171-4.24-.056-8.683-2.14-12.378a27.271,27.271,0,0,0-5.063-5.935c-4.588-4.429-9.243-8.9-14.837-11.977a9,9,0,0,0,.634,5.887A33.182,33.182,0,0,0,1715.371,1041.224Z" transform="translate(-1077.012 -648.899)"/><path class="o" d="M1768.28,1113.4h2.6c1.258-19.477,4.574-62.664,9.566-70.153,1.079,0,14.051-7.259,14.577-9.477s.553-6.428,1.636-9.325a40.57,40.57,0,0,0,2.526-10.2c.219-2.129,3.16-5.234,2.415-7.289-.619-1.7-5.564,2.782-7.418,4.633s-4.789,5.868-7.723,7.567-6.792,10.037-7.7,13.431,0,9.714,0,9.714-8.056,34.752-9.273,53.9C1769.026,1103.582,1768.61,1109.231,1768.28,1113.4Z" transform="translate(-1112.384 -633.218)"/><path class="o" d="M1708.588,1136.05c-.048,6.988-.082,11.762-.1,15.03h3.338c.619-12.385-.349-38.027-17.062-51.677,0,0,2.444-.315,1.532-4.429s-6.881-8.846-6.677-11.128c.186-2.1-1.743-3.932-2.678-5.868-1.958-4.08-5.193-3.424-7.908-6.5-.742-.82-3.483-5.623-4.863-4.9s-.905,7.14-.8,7.878c.341,2.3,1.09,5.308,3.223,6.61,2.778,1.7,3.4,9.421,5.564,10.964s10.189,7.875,11.869,8.03S1708.736,1113.984,1708.588,1136.05Z" transform="translate(-1052.573 -670.912)"/><path class="n" d="M1815.541,1091.726a29.741,29.741,0,0,1-5.193,1.628,10.008,10.008,0,0,0-3.55,1.165c-1.042.7-1.688,1.754-2.671,2.47a25.565,25.565,0,0,1-3.783,1.736,10.119,10.119,0,0,0-4.288,5.078c-.905,2.07-1.406,4.288-2.125,6.428a5.428,5.428,0,0,1-.9,1.818,6.437,6.437,0,0,1-1.769,1.287,48.057,48.057,0,0,0-18.338,19.748,63.945,63.945,0,0,0-6.376,21.6,70.608,70.608,0,0,0-.493,10.66h3.3a83.544,83.544,0,0,1,.568-17.2,55.68,55.68,0,0,1,3.884-14.169,42.713,42.713,0,0,1,5.849-9.8,38.783,38.783,0,0,1,6.306-6.235,40.745,40.745,0,0,1,5.215-3.461c1.272-.716,3.316-2.226,4.67-2.066,1.821.223,3.631.9,5.464.341a9.439,9.439,0,0,0,3.379-2.266c3.312-2.967,6.736-5.849,9.74-9.136a31.349,31.349,0,0,0,6.97-11.276.924.924,0,0,0,.067-.423.683.683,0,0,0-.742-.5,2.069,2.069,0,0,0-.9.371A29.558,29.558,0,0,1,1815.541,1091.726Z" transform="translate(-1110.961 -685.156)"/><path class="o" d="M1698.479,1189.254c4.874,2.5,7.578,10.623,9.136,15.089,1.324,3.809,1.484,13.071,1.484,15.723h1.536c.033-24.329-11.684-31.963-11.684-31.963-.271-8.865-7.444-9.273-10.894-9.273s-6.969-1.558-9.273-2.225-3.453-.679-3.453.4,5.935,2.708,8.594,4.332c.338.2,9.811,6.562,11.065,7.07A19.9,19.9,0,0,0,1698.479,1189.254Z" transform="translate(-1053.911 -739.884)"/><path class="p" d="M1806.879,1159.682c-2.626.775-6.639,2.548-10.579,2.548s-12.122.464-12.43,10.579c0,0-13.405,8.732-13.331,36.569h1.751c0-2.882.167-13.646,1.7-18.042,1.777-5.1,4.863-14.358,10.423-17.214a22.625,22.625,0,0,0,3.976-.968c1.428-.579,12.241-7.834,12.611-8.068,3.056-1.855,9.8-3.709,9.8-4.941S1809.5,1158.91,1806.879,1159.682Z" transform="translate(-1113.805 -729.196)"/><path class="p" d="M1704.071,1143.043c1.513-.2,8.16,30.416,6.1,43.027h1.643c.108-4.254.3-26.573-7.025-43.543a16.278,16.278,0,0,1-.171-2.83c-.345-2.392-.6-5-2.622-6.606-2.63-2.092-5.564-4.269-8.832-5.193-3.338-.938-6.907-.886-10.2-2.055-3.19-1.113-7.307-5.045-7.619-3.294,0,0,5.564,10.6,8.134,11.528s8.439,3.6,10.189,5.353S1702.528,1143.25,1704.071,1143.043Z" transform="translate(-1053.924 -705.891)"/><path class="p" d="M1805.733,1065.849a1.166,1.166,0,0,0-.1-.089c-5.734,4.755-14,4.848-20.638,8.227a45.424,45.424,0,0,0-8.936,6.588,12.215,12.215,0,0,0-3.156,3.583c-1.035,2.1-.779,4.611-.119,6.855a6.542,6.542,0,0,1,.371,1.691,5.97,5.97,0,0,1-.2,1.376,272.871,272.871,0,0,0-6.5,42.508c-.315,4.674-.508,9.362-.464,14.047h2.648c-1.35-13.264.115-26.855,2.044-39.993.809-5.493,1.854-10.95,2.863-16.41a2.19,2.19,0,0,1,.278-.849c.486-.742,1.651-.634,2.411-.8a15.058,15.058,0,0,0,3.6-1.543,74.346,74.346,0,0,0,11.235-6.8c5.779-4.5,10.1-10.56,14.325-16.536C1805.788,1067.14,1806.152,1066.316,1805.733,1065.849Z" transform="translate(-1110.945 -670.445)"/><path class="q" d="M1757.283,1287.34h-31.5s-.894,25.879,9,31.8a2.227,2.227,0,0,0,1.146.315h11.209a2.227,2.227,0,0,0,1.143-.315C1758.173,1313.219,1757.283,1287.34,1757.283,1287.34Z" transform="translate(-1085.638 -809.836)"/><path class="i" d="M1775.911,1319.143a2.226,2.226,0,0,1-1.146.315h-5.085a2.226,2.226,0,0,0,1.146-.315c9.892-5.935,9-31.8,9-31.8h5.085S1785.8,1313.219,1775.911,1319.143Z" transform="translate(-1113.265 -809.836)"/><path class="p" d="M1675.61,1177.26a47.1,47.1,0,0,1,6.5,1.547c1.061.341,2.107.742,3.156,1.113s2.092.742,3.131,1.168a33.022,33.022,0,0,1,3.064,1.346c.5.245.99.519,1.484.786a15.259,15.259,0,0,1,1.421.894,15.968,15.968,0,0,1,2.6,2.144,8.413,8.413,0,0,1,1.829,2.8h-.03a9.211,9.211,0,0,0-1.97-2.645,19.029,19.029,0,0,0-2.6-2.051,40.125,40.125,0,0,0-5.857-3.134c-1.013-.453-2.044-.872-3.1-1.224s-2.125-.66-3.194-.964c-2.137-.612-4.277-1.205-6.436-1.762Z" transform="translate(-1054.087 -740.587)"/><path class="r" d="M1677.624,1123.163a7.01,7.01,0,0,0,.972,1.977c.111.148.211.3.326.449l.371.423c.256.263.508.53.79.768a10.9,10.9,0,0,0,.861.682l.467.293a4.689,4.689,0,0,0,.479.274c.33.163.645.349.99.479l.508.215c.171.07.349.119.523.178.694.249,1.421.434,2.133.638l2.151.6c1.435.4,2.863.823,4.266,1.332a26.193,26.193,0,0,1,4.08,1.881c.627.4,1.287.768,1.877,1.231.3.219.608.441.9.671l.849.742a24.145,24.145,0,0,1,5.423,7.077h-.03l-1.206-1.873-1.332-1.784-.742-.842a10.462,10.462,0,0,0-.742-.823l-.783-.786a4.056,4.056,0,0,0-.393-.371l-.419-.371-.842-.742-.887-.664a21,21,0,0,0-1.855-1.243,30.969,30.969,0,0,0-3.98-1.97,34.375,34.375,0,0,0-4.232-1.387c-1.436-.393-2.9-.66-4.336-1.113a10.226,10.226,0,0,1-3.906-2.185,7.947,7.947,0,0,1-1.447-1.725,6.367,6.367,0,0,1-.872-2.062Z" transform="translate(-1055.333 -706.534)"/><path class="p" d="M1689.252,1092.676a18.679,18.679,0,0,0-1.038-3.338,33.087,33.087,0,0,0-1.6-3.338,30.419,30.419,0,0,0-1.962-3.153,19.763,19.763,0,0,0-2.389-2.852,12.929,12.929,0,0,0-1.406-1.217,10.9,10.9,0,0,1-1.484-1.113,8.773,8.773,0,0,1-1.9-3.1,27.142,27.142,0,0,1-1.606-7.174h-.03a21.663,21.663,0,0,0,.371,3.709,17.163,17.163,0,0,0,1.035,3.576,9.468,9.468,0,0,0,2.066,3.082,15.512,15.512,0,0,0,1.484,1.113,7.266,7.266,0,0,1,.7.6c.234.2.438.434.653.653a31.625,31.625,0,0,1,4.191,6.039c.586,1.083,1.157,2.174,1.654,3.3a22.427,22.427,0,0,1,1.209,3.234Z" transform="translate(-1054.232 -671.47)"/><path class="o" d="M1712.426,1033.095a3.236,3.236,0,0,0,.319.556c.122.182.245.371.371.538l.742,1.065c.516.7,1.046,1.395,1.58,2.088q1.6,2.066,3.338,4.028c.575.653,1.165,1.294,1.788,1.906.308.3.631.6.957.883s.69.542,1,.857a26.448,26.448,0,0,1,3.182,4.165,50.412,50.412,0,0,1,2.6,4.555c.783,1.558,1.547,3.142,2.226,4.763a47.464,47.464,0,0,1,1.74,4.967,18.578,18.578,0,0,1,.849,5.171h-.03a13.8,13.8,0,0,0-.371-2.6c-.185-.849-.43-1.688-.682-2.519-.523-1.662-1.146-3.29-1.814-4.9a74.43,74.43,0,0,0-4.666-9.347c-.449-.742-.92-1.484-1.432-2.188a14.652,14.652,0,0,0-1.68-1.992,12.089,12.089,0,0,0-1-.835c-.341-.278-.675-.56-1-.861-.646-.59-1.265-1.213-1.855-1.855-1.183-1.287-2.277-2.659-3.338-4.058-.527-.7-1.027-1.417-1.521-2.137-.249-.371-.486-.742-.72-1.113-.115-.186-.23-.371-.341-.56-.056-.093-.111-.189-.163-.286a1.245,1.245,0,0,1-.13-.312Z" transform="translate(-1077.212 -649.887)"/><path class="r" d="M1818.407,1066.321a7.624,7.624,0,0,1-.783,1.113c-.289.341-.594.675-.916.987a21.444,21.444,0,0,1-2.036,1.766,35.936,35.936,0,0,1-4.51,2.927c-1.58.849-3.2,1.61-4.822,2.329-.82.371-1.621.742-2.43,1.135-.4.193-.79.415-1.183.627s-.79.415-1.168.657c-.742.467-1.528.92-2.255,1.435-.371.252-.742.49-1.113.742l-1.072.8c-.371.256-.694.556-1.042.834s-.694.56-1.016.868l-.987.894-.968.935a31.033,31.033,0,0,0-3.39,4.113,18.916,18.916,0,0,0-2.415,4.748h-.03a17.254,17.254,0,0,1,2.226-4.874,27.777,27.777,0,0,1,3.36-4.2,36.5,36.5,0,0,1,8.572-6.458c.371-.23.794-.415,1.187-.627s.794-.416,1.2-.608l2.433-1.131,1.217-.564c.4-.193.794-.408,1.194-.612.8-.4,1.569-.846,2.352-1.28a46.3,46.3,0,0,0,4.492-2.893,25.109,25.109,0,0,0,2.066-1.7,11.867,11.867,0,0,0,1.784-1.977Z" transform="translate(-1123.701 -670.791)"/><path class="p" d="M1824.459,1007.159q-3.4,3.845-6.558,7.89c-1.061,1.339-2.122,2.682-3.1,4.08s-1.921,2.834-2.8,4.3-1.691,2.967-2.47,4.488-1.458,3.086-2.085,4.67a33.861,33.861,0,0,0-1.484,4.881,23.381,23.381,0,0,0-.371,2.326l-.171.13a19.59,19.59,0,0,1,.323-2.5,28.358,28.358,0,0,1,1.424-4.948,50.87,50.87,0,0,1,4.711-9.132c.916-1.447,1.884-2.86,2.852-4.273s1.955-2.812,2.99-4.177,2.125-2.685,3.245-3.987,2.27-2.563,3.49-3.765Z" transform="translate(-1135.748 -633.568)"/><path class="o" d="M1869.606,1089.714a.034.034,0,0,1,.03.044v.033a.366.366,0,0,1-.037.063,1.167,1.167,0,0,1-.082.108c-.055.07-.115.137-.174.2a4.411,4.411,0,0,1-.371.371c-.252.252-.512.5-.775.742-.527.482-1.057.961-1.606,1.417-1.113.92-2.226,1.814-3.387,2.637a23,23,0,0,1-3.709,2.174c-.337.134-.675.234-.994.371a9.2,9.2,0,0,0-.942.5c-.623.349-1.217.742-1.81,1.139a66.764,66.764,0,0,0-6.71,5.278c-.527.475-1.046.964-1.551,1.484s-1,1.009-1.461,1.547a16.27,16.27,0,0,0-1.309,1.677,6.709,6.709,0,0,0-.927,1.9h-.03a6.37,6.37,0,0,1,.827-1.981,14.439,14.439,0,0,1,1.254-1.751,29.751,29.751,0,0,1,2.968-3.094c1.057-.968,2.166-1.877,3.309-2.737s2.311-1.688,3.524-2.444q.907-.556,1.855-1.113c.315-.174.634-.334.957-.49s.668-.271.994-.4a11.869,11.869,0,0,0,1.855-1.05c.594-.371,1.172-.809,1.743-1.231,1.142-.849,2.274-1.714,3.383-2.6.553-.449,1.113-.894,1.65-1.358l.809-.7c.134-.119.267-.237.393-.371l.189-.189.085-.1c.026-.026.059-.089.048-.085Z" transform="translate(-1159.867 -685.511)"/><path class="r" d="M1835.07,1159.752c-2.285.883-4.577,1.725-6.877,2.559-1.15.412-2.307.8-3.438,1.272-.568.223-1.113.478-1.684.742l-1.68.742a62.534,62.534,0,0,0-6.547,3.257c-.523.308-1.028.649-1.525.994a14.011,14.011,0,0,0-1.432,1.113,9.169,9.169,0,0,0-2.248,2.834h-.03a8.5,8.5,0,0,1,2.114-3,17.2,17.2,0,0,1,2.968-2.225,31.681,31.681,0,0,1,3.26-1.71c1.113-.516,2.226-.983,3.387-1.428s2.266-.916,3.386-1.41,2.252-.961,3.39-1.409q3.427-1.317,6.955-2.352Z" transform="translate(-1138.384 -729.559)"/><rect class="s" width="297.603" height="190.454" rx="34.7" transform="translate(180.688 91.388)"/><rect class="t" width="28.376" height="3.097" rx="1.549" transform="translate(271.827 202.194)"/><rect class="t" width="5.208" height="48.005" transform="translate(216 202.965)"/><rect class="t" width="5.208" height="45.687" transform="translate(225.132 205.287)"/><rect class="t" width="5.208" height="20.379" transform="translate(234.264 230.592)"/><rect class="t" width="5.208" height="37.704" transform="translate(243.4 213.27)"/><rect class="t" width="1.076" height="53.88" transform="translate(207.791 197.632)"/><rect class="t" width="1.076" height="50.62" transform="translate(207.791 251.512) rotate(-90)"/><path class="u" d="M696.4,670.914l-5.827-3.364v6.729Z" transform="translate(-434.422 -419.94)"/><path class="u" d="M555.944,519.96l-3.364,5.827h6.729Z" transform="translate(-347.615 -327.095)"/><rect class="t" width="99.103" height="6.232" rx="2.6" transform="translate(351.268 227.602)"/><rect class="t" width="72.178" height="6.232" rx="2.6" transform="translate(351.268 241.501)"/><rect class="t" width="63.921" height="3.795" rx="1.897" transform="translate(369.963 174.315)"/><rect class="t" width="61.714" height="3.795" rx="1.897" transform="translate(369.963 182.772)"/><rect class="t" width="80.691" height="3.795" rx="1.897" transform="translate(369.963 191.233)"/><rect class="t" width="46.403" height="3.795" rx="1.897" transform="translate(369.963 199.694)"/><path class="t" d="M1078.3,348.819a20.913,20.913,0,1,1-20.91-20.909v20.909Z" transform="translate(-652.019 -206.281)"/><path class="u" d="M1121.369,340.565a21,21,0,0,0-21.009-21.005m0,0v21.005h21.005" transform="translate(-692.211 -201.028)"/><rect class="t" width="128.569" height="61.035" rx="8.55" transform="translate(201.812 114.845)"/><rect class="s" width="78.918" height="3.097" rx="1.549" transform="translate(244.898 126.203)"/><rect class="s" width="50.906" height="3.097" rx="1.549" transform="translate(244.898 133.11)"/><rect class="s" width="66.558" height="3.097" rx="1.549" transform="translate(244.898 140.02)"/><rect class="s" width="20.612" height="3.097" rx="1.549" transform="translate(244.898 146.926)"/><rect class="s" width="111.978" height="3.097" rx="1.549" transform="translate(211.838 157.913)"/><rect class="s" width="108.469" height="3.097" rx="1.549" transform="translate(211.838 164.82)"/><circle class="u" cx="11.124" cy="11.124" r="11.124" transform="translate(211.838 126.203)"/><path class="r" d="M584.381,191.964a6.087,6.087,0,1,1,6.083-6.086A6.087,6.087,0,0,1,584.381,191.964Zm0-11.209a5.126,5.126,0,1,0,5.122,5.124A5.126,5.126,0,0,0,584.381,180.754Z" transform="translate(-363.789 -113.102)"/><path class="r" d="M391.141,93.753a.482.482,0,0,1-.482-.482V42.454H271.592a.482.482,0,1,1,0-.964H391.141a.486.486,0,0,1,.482.482v51.3A.482.482,0,0,1,391.141,93.753Z" transform="translate(-170.549 -26.1)"/><path class="r" d="M1211.207,192.964a6.087,6.087,0,1,1,6.087-6.087A6.087,6.087,0,0,1,1211.207,192.964Zm0-11.209a5.126,5.126,0,1,0,5.126,5.122A5.126,5.126,0,0,0,1211.207,181.754Z" transform="translate(-758.113 -113.731)"/><path class="r" d="M1220.719,125.081a.482.482,0,0,1-.479-.482V91.182a.482.482,0,0,1,.479-.482h91.05a.482.482,0,1,1,0,.964H1221.2v32.942A.482.482,0,0,1,1220.719,125.081Z" transform="translate(-767.625 -57.057)"/><path class="r" d="M1337.821,491.134a6.087,6.087,0,1,1,6.083-6.086A6.087,6.087,0,0,1,1337.821,491.134Zm0-11.209a5.122,5.122,0,1,0,5.137,5.122A5.122,5.122,0,0,0,1337.821,479.924Z" transform="translate(-837.76 -301.303)"/><path class="r" d="M1465.513,495.034h-102.99a.482.482,0,0,1,0-.964h102.99a.482.482,0,1,1,0,.964Z" transform="translate(-856.828 -310.808)"/><path class="t" d="M1536.193,78.995H1490.38a2.86,2.86,0,0,1-2.86-2.86v-31.6a2.86,2.86,0,0,1,2.86-2.856h45.813a2.86,2.86,0,0,1,2.86,2.856v31.6a2.86,2.86,0,0,1-2.86,2.86" transform="translate(-935.764 -26.22)"/><path class="v" d="M1579.618,61.38a5.334,5.334,0,1,1-5.333-5.33,5.334,5.334,0,0,1,5.333,5.33" transform="translate(-986.99 -35.26)"/><path class="s" d="M1596.39,61.38a5.33,5.33,0,1,1-5.33-5.33,5.33,5.33,0,0,1,5.33,5.33" transform="translate(-997.546 -35.26)"/><path class="s" d="M1505.987,58.44h-8a.89.89,0,1,0,0,1.78h8a.89.89,0,1,0,0-1.78" transform="translate(-941.791 -36.763)"/><path class="s" d="M1517.635,69.74h-19.548a.89.89,0,0,0,0,1.777h19.548a.89.89,0,0,0,0-1.777Z" transform="translate(-941.888 -43.872)"/><path class="s" d="M1538.014,59.33a.89.89,0,0,0-.886-.89h-8a.89.89,0,1,0,0,1.78h8a.89.89,0,0,0,.886-.89" transform="translate(-961.38 -36.763)"/><rect class="v" width="7.997" height="5.33" transform="translate(556.199 41.224)"/><rect class="v" width="7.997" height="5.33" transform="translate(567.75 41.224)"/><rect class="v" width="7.997" height="5.33" transform="translate(579.301 41.224)"/><rect class="v" width="7.997" height="5.33" transform="translate(590.851 41.224)"/><path class="t" d="M1640.727,411.849a14.969,14.969,0,0,0,.542,3.413l-2.062,1.6a1.673,1.673,0,0,0-.412,2.185l2.04,3.375a1.673,1.673,0,0,0,2.129.657l2.355-1.076a14.684,14.684,0,0,0,2.878,2.155l-.33,2.6a1.677,1.677,0,0,0,1.257,1.836l3.832.946a1.676,1.676,0,0,0,1.966-1.042l.887-2.374a14.882,14.882,0,0,0,3.791-.545l1.532,1.981a1.68,1.68,0,0,0,2.188.408l3.375-2.04a1.665,1.665,0,0,0,.653-2.125l-1.016-2.248a14.43,14.43,0,0,0,2.251-3.038l2.352.3a1.677,1.677,0,0,0,1.836-1.257l.942-3.832a1.669,1.669,0,0,0-1.038-1.966l-2.189-.82a14.675,14.675,0,0,0-.534-3.683l1.817-1.413a1.673,1.673,0,0,0,.412-2.185l-2.036-3.368a1.669,1.669,0,0,0-2.125-.657l-2.036.931a14.7,14.7,0,0,0-3.157-2.348l.286-2.263a1.676,1.676,0,0,0-1.257-1.836l-3.832-.946a1.677,1.677,0,0,0-1.966,1.042l-.8,2.137a14.54,14.54,0,0,0-3.988.638l-1.421-1.836a1.68,1.68,0,0,0-2.188-.408l-3.375,2.04a1.665,1.665,0,0,0-.653,2.125l1.012,2.226a14.329,14.329,0,0,0-2.166,3.053l-2.43-.312a1.673,1.673,0,0,0-1.855,1.254l-.946,3.832a1.673,1.673,0,0,0,1.042,1.966Zm16.428-6.944a6.525,6.525,0,1,1-7.9,4.774A6.524,6.524,0,0,1,1657.156,404.905Z" transform="translate(-1029.924 -247.304)"/><path class="u" d="M1747,468.932l-1.6-2.2a1.64,1.64,0,0,0-2.144-.467l-1.376.768a11.991,11.991,0,0,0-2.741-1.7l.067-1.617a1.665,1.665,0,0,0-1.391-1.706l-2.693-.427a1.654,1.654,0,0,0-1.855,1.183l-.438,1.554a11.955,11.955,0,0,0-3.212.794L1728.5,463.9a1.651,1.651,0,0,0-2.188-.219l-2.226,1.614a1.647,1.647,0,0,0-.471,2.144l.864,1.532a12.25,12.25,0,0,0-1.565,2.641l-1.751-.074a1.666,1.666,0,0,0-1.706,1.391l-.427,2.693a1.658,1.658,0,0,0,1.187,1.855l1.788.5a12.215,12.215,0,0,0,.675,2.756l-1.384,1.272a1.651,1.651,0,0,0-.219,2.185l1.6,2.207a1.647,1.647,0,0,0,2.144.467l1.629-.913a12.061,12.061,0,0,0,2.5,1.554l-.082,1.9a1.666,1.666,0,0,0,1.391,1.706l2.693.427a1.658,1.658,0,0,0,1.855-1.183l.493-1.758a12.24,12.24,0,0,0,3.053-.7l1.22,1.32a1.651,1.651,0,0,0,2.185.223l2.207-1.6a1.643,1.643,0,0,0,.467-2.144l-.868-1.536a11.866,11.866,0,0,0,1.632-2.634l1.684.067a1.665,1.665,0,0,0,1.706-1.391l.427-2.693a1.658,1.658,0,0,0-1.187-1.855l-1.6-.449a11.835,11.835,0,0,0-.686-2.967l1.205-1.113A1.654,1.654,0,0,0,1747,468.932Zm-13.724,12.8a6.461,6.461,0,1,1,.019,0Z" transform="translate(-1081.392 -290.359)"/><path class="w" d="M1651.706,506.868a1.654,1.654,0,0,0-1.829,1.224l-.419,1.621a1.647,1.647,0,0,0,1,1.955l1.157.449a9.28,9.28,0,0,0,.338,2.281l-1.005.76a1.647,1.647,0,0,0-.43,2.155l.849,1.443a1.651,1.651,0,0,0,2.1.671l1.139-.5a9.764,9.764,0,0,0,1.9,1.458l-.174,1.261a1.654,1.654,0,0,0,1.224,1.829l1.621.419a1.647,1.647,0,0,0,1.955-1l.434-1.113a9.889,9.889,0,0,0,2.53-.345l.72.95a1.647,1.647,0,0,0,2.155.427l1.443-.849a1.647,1.647,0,0,0,.671-2.092l-.467-1.065a9.442,9.442,0,0,0,1.532-2l1.091.152a1.654,1.654,0,0,0,1.829-1.224l.419-1.621a1.647,1.647,0,0,0-1-1.955l-1.005-.389a10.009,10.009,0,0,0-.326-2.467l.846-.634a1.647,1.647,0,0,0,.427-2.155l-.849-1.443a1.647,1.647,0,0,0-2.092-.671l-.924.4a9.782,9.782,0,0,0-2.088-1.591l.145-1.031a1.647,1.647,0,0,0-1.224-1.829l-1.617-.419a1.65,1.65,0,0,0-1.958,1l-.371.972a9.943,9.943,0,0,0-2.663.389l-.642-.853a1.647,1.647,0,0,0-2.151-.427l-1.45.853a1.651,1.651,0,0,0-.675,2.1l.467,1.053a9.624,9.624,0,0,0-1.484,2.022Zm10.935.742a3.567,3.567,0,1,0,0,.007Z" transform="translate(-1037.602 -314.459)"/><path class="t" d="M75.368,28.47h31.184a3.379,3.379,0,0,1,3.368,3.368V51.215a3.379,3.379,0,0,1-3.368,3.364H85.057l-4.863,4.907a1.046,1.046,0,0,1-.742.334,1.076,1.076,0,0,1-1.083-1.083V54.579h-3A3.379,3.379,0,0,1,72,51.215V31.838a3.383,3.383,0,0,1,3.368-3.368Z" transform="translate(-45.294 -17.91)"/><path class="w" d="M164.039,0h-41.67a4.518,4.518,0,0,0-4.5,4.5V30.416a4.518,4.518,0,0,0,4.5,4.492h28.739l6.5,6.558a1.4,1.4,0,0,0,1,.445,1.432,1.432,0,0,0,1.443-1.447V34.9h4a4.518,4.518,0,0,0,4.488-4.484V4.5A4.518,4.518,0,0,0,164.039,0Z" transform="translate(-74.149)"/><circle class="s" cx="2.741" cy="2.741" r="2.741" transform="translate(51.97 13.72)"/><circle class="s" cx="2.741" cy="2.741" r="2.741" transform="translate(66.306 13.72)"/><circle class="s" cx="2.741" cy="2.741" r="2.741" transform="translate(80.642 13.72)"/><path class="h" d="M2.033,1328.12s-15.716-22.207,40.256-20.939,52,11.22,105.661,8.9,132.509-9.18,104.17,19.9S15.019,1360.123,2.033,1328.12Z" transform="translate(0 -822.284)"/><path class="i" d="M403.276,1054.017a.824.824,0,0,0-.946-.642.809.809,0,0,0-.642.946l4.251,22.089H318.987a.8.8,0,0,0-.616.293l4.306-22.374a.809.809,0,1,0-1.588-.3l-21.614,112.323a.812.812,0,0,0,.642.946.7.7,0,0,0,.152,0,.809.809,0,0,0,.794-.657l17.144-89.166a.809.809,0,0,0,.764.556H406.25l17.062,88.621a.8.8,0,0,0,.79.657.746.746,0,0,0,.156,0,.809.809,0,0,0,.638-.946Z" transform="translate(-188.385 -662.633)"/><path class="q" d="M178.74,760.415s2.786-9.373,2.786-13.932c0-3.3,2.912-6.729,5.223-8.765a19.191,19.191,0,0,1,15.887-4.3c3.468.56,8.312,1.68,10.475,4.637,2.767,3.776,5.4,8.98,3.872,13.75a18.056,18.056,0,0,1-1.966,4.952c-.119.167-.315.312-.419.467-.842,1.28.111,3.78.226,5.193.07.887.508,3.835-.742,4.2-1.773.508-1.013-.887-1.773.508-.642,1.176-1.231,2.385-1.966,3.509s-1.91,1.855-2.329,3.131c-.5,1.565-.059,7.1-2.923,6.677-3.294-.508-7.979-7.344-11.9-4.822s-4.433,4.306-4.433,4.306Z" transform="translate(-112.441 -461.203)"/><path class="k" d="M306.28,1043.346v.79a1.369,1.369,0,0,0,1.369,1.369h71.217l-15.249-2.385Z" transform="translate(-192.674 -656.202)"/><path class="l" d="M460.93,970.493l16.84-39.9L496.1,927.67l-19.963,45.208Z" transform="translate(-289.96 -583.576)"/><path class="k" d="M482.921,935.062c-.53,1.113-15.071,36.261-15.071,36.261l11.84.668,16.947-39.251Z" transform="translate(-294.314 -586.765)"/><path class="l" d="M363.6,1043.12l-57.319.226,4.384,1.428a14.891,14.891,0,0,0,4.6.742h63.613Z" transform="translate(-192.674 -656.203)"/><path class="k" d="M403.5,1045.453H381.3l7.756-.783h17.89Z" transform="translate(-239.867 -657.178)"/><path class="k" d="M366.121,1045.453h-1.55l7.667-.783h2.927Z" transform="translate(-229.343 -657.178)"/><path class="x" d="M342.157,1049.55h59.27c-.293,5.293-8.234,4.41-8.234,4.41H253.355s-7.941.883-8.234-4.41Z" transform="translate(-154.199 -660.247)"/><path class="i" d="M47.606,1119.883s-.5,5.772,2.148,6.413,12.645-1.8,12.278-6.413-.256-8.9-4.054-9.41-10.408,7.971-10.408,7.971" transform="translate(-29.924 -698.559)"/><path class="x" d="M175.723,1164.893v-.063s-.2,0-.564.026a1.929,1.929,0,0,1-.564-.026v.063c-7.085.575-45.275,6.143-44.774,59.44h3.086c1.332-2.025.523-53.1,42.252-55.123,41.733,2.025,40.92,53.1,42.256,55.123H220.5C221,1171.036,182.812,1165.468,175.723,1164.893Z" transform="translate(-81.665 -732.767)"/><path class="i" d="M85.224,1205.663v-.063s-.2,0-.564.026a1.872,1.872,0,0,1-.56-.026v.063c-7.088.575-45.271,6.142-44.778,59.433h3.086c1.332-2.025.523-53.1,42.252-55.123,41.733,2.025,40.924,53.1,42.256,55.123H130C130.5,1211.806,92.312,1206.238,85.224,1205.663Z" transform="translate(-24.734 -758.415)"/><path class="x" d="M33.047,1176s-3.583,6.8,2.749,8.609,79.378,5.864,83.5,5.1,8.832-8.32,8.832-8.353-93.6-5.36-93.6-5.36Z" transform="translate(-20.154 -739.794)"/><path class="i" d="M0,856.838q1.988,47.326,4.028,94.652a5.694,5.694,0,0,0,7.048,5.286c9.536-2.337,18.917-5.838,24.585-13.6,6.677-9.151,6.154-21.569,4.573-32.782-2.274-16.161-6.191-32.189-12.982-47.026-2.437-5.323-5.5-10.757-10.623-13.6-6.413-3.55-12.025-.59-16.628,4.021" transform="translate(0 -533.582)"/><path class="i" d="M132.813,1131.8s-79.118-6.6-94.359-5.345,19.11-25.594,35.583-29.377,77.215-5.019,73.966,1.673S144.033,1128.854,132.813,1131.8Z" transform="translate(-21.795 -688.198)"/><path class="q" d="M319.943,1001.44l19.911,2.99c3.568.538,10.913,6.628,12.474,7.73s-2.86,3.709-5.493,2.059-2.812-3.016-7.708-2.4-9.822,2.749-13.439,1.246-7.029-3.071-7.029-3.071l1.113-7.419" transform="translate(-200.462 -629.983)"/><path class="q" d="M319.7,1018.33h20.137c3.609,0,11.777,4.937,13.487,5.794s-2.281,4.08-5.13,2.852-3.227-2.567-7.979-1.235-9.306,4.177-13.1,3.227-7.418-1.992-7.418-1.992v-7.5" transform="translate(-201.11 -640.608)"/><path class="y" d="M345.248,1014.161c-2.507-1.209-5.122-2.248-6.777-2.248H318.66l.4-2.671.167-1.113,19.911,2.99C340.715,1011.346,343.026,1012.663,345.248,1014.161Z" transform="translate(-200.462 -634.191)"/><path class="q" d="M333,1297.406v6.465c0,.371,8.9,5,9.644,5.122s1.354-6.261,1.354-6.261l1.083-7.522Z" transform="translate(-209.483 -814.787)"/><path class="z" d="M326.872,1315.49s-3.9,7.318-3.168,14.881,4.633,5.367,8.531,5.853,3.416-1.461,3.416-1.461c.085.345,2.047.909,2.337,1.02a35.927,35.927,0,0,0,6.283,1.792,33.365,33.365,0,0,0,8.246.471c2.244-.137,5.9-.156,7.83-1.376,3.056-1.936,2.6-5.616-.271-7.355-5.612-3.416-13.973-2.114-16.758-6.506a77.621,77.621,0,0,0-5.226-7.318S329.557,1316.955,326.872,1315.49Z" transform="translate(-203.577 -827.544)"/><path class="q" d="M277.06,1327.531v6.71c0,.371,9.243,5.193,10.015,5.319s1.406-6.5,1.406-6.5l1.113-7.812Z" transform="translate(-174.292 -833.684)"/><path class="aa" d="M191.224,1107.936c0,8.865-2.89,42.523-3.394,43.283-.237.371-2.6.43-5.3.341a40.45,40.45,0,0,1-7.867-.849c-.445-.145-.712-1.428-.864-3.364-.022-.282-.041-.579-.056-.886-.4-7.322.493-21.658.223-23.112-.045-.223-.111-.148-.215.293-1.009,4.3-3.646,33.654-5.167,36.948a3.4,3.4,0,0,1-2.2,1.714c-3.019,1-8.068.248-10.72.059-3.546-.252-2.886-2.9-2.634-6.439.022-.3.059-.7.1-1.187.453-5.193,1.9-20.264-.041-28.932-.033-.141-.063-.274-.093-.408-2.263-9.366-.523-24.562,0-27.723s-11.907-3.427-20.579-1.15-44.511,1.016-47.534-2.53c-1.673-1.962-2.352-8.357-2.626-13.668-.219-4.281-.182-9.644-.182-9.644s0,1.8,1.524,1.035,41.028-11.9,50.4-13.171,32.923,3.55,42.04,5.07,12.663,5.824,13.424,10.386S191.224,1099.074,191.224,1107.936Z" transform="translate(-51.631 -665.773)"/><path class="t" d="M179.332,749.487s-1.35-11.97,0-15.208,1.157-3.42,3.661-7.047,5.011-8.357,12.53-8.531,7.708,1.706,10.6,1.706,13.1,3.338,14.644,7.348.957,10.074-1.547,11.4-8.275-3.743-11.358-5.263-2.318.571-2.125,2.281-1.154,5.508-2.5,6.079-3.3-.193-3.1,1.706-2.493,7.979-2.493,10.26,2.333,7.24,4.047,6.284,5.193-4.14,7.708-3.8a10.79,10.79,0,0,1,3.231.742s-.371,4.321-2.559,4.451c0,0-4.4-1.855-5.564-.2a8.626,8.626,0,0,0,3.854,2.025c1.925.252.9,14.058-7.452,9.644s-12.463-11.651-9.763-16.209,3.709-4.451,4.5-6.584,2.055-6.966.13-8.231-5.011-2.66-6.677,1.139-3.472,8.991-7.066,7.6S179.332,749.487,179.332,749.487Z" transform="translate(-112.436 -452.111)"/><path class="z" d="M124.655,943.009c-1.113-2.285-1.814-3.765-1.855-3.869C123.638,939.622,124.239,941.032,124.655,943.009Z" transform="translate(-77.251 -590.791)"/><path class="u" d="M173.9,889.964c-1.632-.523-10.516-3.39-14.058-5.111-3.913-1.9-11.068-4.3-14.1-8.294s-4.941-1.625-6.269-6.306-6.172-20.156-7.007-21.933l-.022-.048a34.82,34.82,0,0,0-3.45-4.236c-.827-.927-1.658-1.829-2.311-2.53-3.613-6.347-14.381-19.329-16.9-17.942,0,0-17.667,7.975-21.465,27.73S77.2,923.685,81.742,925.584A93.95,93.95,0,0,0,92.3,928.118c14.837,3.053,39.466,5.226,40.865,4.666,1.9-.742,2.849-21.844,3.038-24.692v-1.142c6.05.3,33.405,1.658,34.529,1.209.953-.371.033-8.2-.69-12.552a21.394,21.394,0,0,0-.575-2.774C169.6,892.223,171.713,889.393,173.9,889.964Z" transform="translate(-50.518 -518.021)"/><path class="s" d="M166.021,803.25s-6.84,7.6-6.269,7.6,15.95,10.067,16.525,21.844l5.508-6.458S170.58,804.771,166.021,803.25Z" transform="translate(-100.475 -505.306)"/><path class="ab" d="M150.6,999.708c-.5,6.016-1.235,12.01-2.226,12.407-1.4.56-26.569-1.565-41.41-4.781a52.591,52.591,0,0,1,1.332-8.958c1.521-5.827-4.559-15.7-3.8-18.743s7.852,2.025,8.613-3.294c.6-4.2,1.591-19.4.03-26.77,4.147,8.409,14.188,27.723,19.722,29.3,7.092,2.025,17.222,8.1,18.487,8.1a.193.193,0,0,1,.078.022v.423c-.07,1.031-.241,4.473-.519,8.472Z" transform="translate(-65.696 -597.352)"/><path class="ab" d="M221.867,911.974c1.328,4.7,3.227,2.333,6.269,6.306,2.7,3.55,19.7,7.578,23.739,9.381-8.657-1.354-30.416-4.763-31.28-4.874-1.439-.189-10.367-42.1-9.21-43.936,1.554,1.729,1.083,3.91,1.439,4.614" transform="translate(-132.912 -552.864)"/><path class="ac" d="M166.7,1199.6c-3.019,1-8.068.248-10.72.059-3.546-.252-2.886-2.9-2.634-6.439.022-.3.059-.7.1-1.187.453-5.193,1.9-20.264-.041-28.932-.033-.141-.063-.274-.093-.408-2.263-9.366-.523-24.562,0-27.723s-11.907-3.427-20.579-1.15-44.511,1.016-47.534-2.53c-1.673-1.962-2.352-8.357-2.626-13.669.041.816,1.524,2.63,1.951,3.338a26.741,26.741,0,0,0,4.685,5.816c5.89,5.493,16.632,4.221,24.11,4.147,11.9-.119,23.769-.5,35.649-.5,7.048,0,12.637,4.039,13.965,4.039s-1.328,2.853-1.328,4.18,2.378,1.332,2.708,1.9-5.367.742-4.229,5.13,2.47,6.836,1.139,14.626-3.42,29.388-1.517,33.383C161.017,1196.493,166.146,1197.606,166.7,1199.6Z" transform="translate(-51.943 -703.069)"/><path class="ac" d="M337.809,1199.2a40.448,40.448,0,0,1-7.867-.849c-.445-.145-.712-1.428-.864-3.364a1.855,1.855,0,0,0-.056-.886c-.4-7.322.493-21.658.223-23.112,1.113-13.29,3.361-36.351,3.361-36.922,0,0,1.9,17.285,2.088,25.074s-1.139,27.352,2.281,36.848A14.732,14.732,0,0,1,337.809,1199.2Z" transform="translate(-206.914 -713.417)"/><path class="ac" d="M269.9,1095.035c0-2.248-1.554-4.2-3.279-5.638-5.441-4.54-13.6-5.564-20.315-7.163-1.231-.293-17.508-3.661-17.482-3.961.108-1.287.2-2.6.289-3.813,6.892,1.3,23.713,4.681,31.658,8.053C266.2,1084.824,269.744,1089.1,269.9,1095.035Z" transform="translate(-143.945 -675.918)"/><path class="z" d="M306.979,1366.777a4.933,4.933,0,0,1-1.558,1.521c-2.007,1.269-5.794,1.287-8.127,1.432a35.03,35.03,0,0,1-8.561-.49,37.205,37.205,0,0,1-6.525-1.855c-.3-.119-2.337-.7-2.426-1.064,0,0,.508,2.025-3.546,1.521s-8.1,1.773-8.865-6.079c-.067-.708-.1-1.41-.093-2.1a32.4,32.4,0,0,1,3.387-13.353c2.786,1.517,11.651,0,11.651,0a79.93,79.93,0,0,1,5.427,7.6c2.893,4.559,11.573,3.2,17.4,6.751C307.473,1362.078,308.27,1364.741,306.979,1366.777Z" transform="translate(-168.139 -846.932)"/><path class="ad" d="M306.979,1389.424a4.936,4.936,0,0,1-1.558,1.521c-2.007,1.269-5.794,1.287-8.127,1.432a35.036,35.036,0,0,1-8.561-.49,37.226,37.226,0,0,1-6.525-1.855c-.3-.119-2.337-.7-2.426-1.064,0,0,.508,2.025-3.546,1.521s-8.1,1.773-8.865-6.079c-.067-.708-.1-1.41-.093-2.1,3.557,1.361,20.108,7.611,25.408,7.841C297.758,1390.355,303.93,1390.671,306.979,1389.424Z" transform="translate(-168.139 -869.579)"/><path class="ad" d="M361.829,1357a4.7,4.7,0,0,1-1.484,1.465c-1.929,1.22-5.564,1.239-7.823,1.376a33.505,33.505,0,0,1-8.257-.482,35.482,35.482,0,0,1-6.283-1.788c-.286-.115-2.248-.675-2.333-1.024,0,0,.486,1.947-3.416,1.461s-7.789,1.71-8.531-5.849a19.656,19.656,0,0,1-.093-2.025c3.427,1.313,19.358,7.329,24.459,7.552C352.953,1357.9,358.9,1358.2,361.829,1357Z" transform="translate(-203.575 -849.335)"/><path class="i" d="M1664.438,1307.115l-10.875-65.976a.376.376,0,1,0-.742.126l10.82,65.85Z" transform="translate(-1039.748 -780.574)"/><path class="i" d="M1578.209,1307.091l10.853-65.854a.385.385,0,1,0-.76-.126l-10.872,65.976Z" transform="translate(-992.325 -780.551)"/><path class="x" d="M1614.742,1305.243l.3-67.022a.371.371,0,0,0-.371-.371h0a.371.371,0,0,0-.371.371l-.3,67.026Z" transform="translate(-1015.33 -778.703)"/><path class="x" d="M1647.842,1308.131l.289-65.32a.371.371,0,0,0-.371-.371h0a.389.389,0,0,0-.371.371l-.289,65.323Z" transform="translate(-1036.152 -781.59)"/><path class="x" d="M1608.04,1214.1c0,1.547-1.884,2.99-5.134,4.2-4.08,1.525-10.326,2.674-17.678,3.2-.252.022-.512.041-.775.056l-1.168.074-.771.041c-2.1.1-4.266.156-6.487.156q-2.563,0-5.026-.093a5.869,5.869,0,0,1-.768-.033c-.779-.03-1.539-.07-2.292-.122l-.768-.048c-7.7-.538-14.221-1.751-18.357-3.36-3.045-1.187-4.8-2.6-4.8-4.08a1.785,1.785,0,0,1,0-.208,2.107,2.107,0,0,1,.286-.842c.868-1.039,3.657-1.981,7.789-2.726a142.748,142.748,0,0,1,23.943-1.74c10.241,0,19.355.775,25.223,1.981,3.42.708,5.734,1.558,6.51,2.485a2.163,2.163,0,0,1,.286.842A1.07,1.07,0,0,0,1608.04,1214.1Z" transform="translate(-971.302 -760.283)"/><path class="i" d="M1608.072,1213.76v.148c-.16.924-1.832,1.784-4.629,2.526-5.616,1.484-15.775,2.489-27.378,2.489s-21.677-.99-27.307-2.467c-2.838-.742-4.536-1.621-4.692-2.548a1,1,0,0,1,0-.148,1.046,1.046,0,0,1,.3-.694c.868-1.039,3.657-1.981,7.789-2.726a142.749,142.749,0,0,1,23.943-1.74c10.241,0,19.355.775,25.223,1.981,3.42.708,5.734,1.558,6.51,2.485A1.038,1.038,0,0,1,1608.072,1213.76Z" transform="translate(-971.334 -760.302)"/><path class="i" d="M1625.146,1327.271a.312.312,0,0,1-.2-.071l-28.446-23.1a.311.311,0,0,1-.045-.441.319.319,0,0,1,.445-.048l28.442,23.1a.315.315,0,0,1-.2.56Z" transform="translate(-1004.25 -820.029)"/><path class="i" d="M1586.693,1327.271a.305.305,0,0,1-.245-.115.315.315,0,0,1,.045-.445l28.446-23.1a.316.316,0,0,1,.442.048.312.312,0,0,1-.045.442l-28.446,23.1A.3.3,0,0,1,1586.693,1327.271Z" transform="translate(-997.952 -820.03)"/><path class="ae" d="M1611.261,1216.434c-5.616,1.484-15.775,2.489-27.374,2.489s-21.68-.99-27.307-2.466a8.059,8.059,0,0,1,3.364-6.117,142.761,142.761,0,0,1,23.943-1.74c10.237,0,19.351.775,25.223,1.981C1610.271,1212.22,1611.388,1214.36,1611.261,1216.434Z" transform="translate(-979.208 -760.302)"/><path class="q" d="M1568.8,855.858a6.846,6.846,0,0,1-1.547,4.047c-1.732,2.518-4.37,5-4.952,6.758-.909,2.723,1.484,8.016,1.484,8.016s-1.113,5.441-4.277,7.048a4.448,4.448,0,0,1-.642.256c-3.576,1.072-12.4-.953-11.15-4.714a9.042,9.042,0,0,0,.371-3.546c-.237-2.852-.371-5.3-.371-5.3-2.719,2.114-7.048,1.432-8.008.6a21.151,21.151,0,0,1-4.536-6.346,15.44,15.44,0,0,1-1.484-8.086c.082-1.439.441-1.361,0-3.405s-.39-7.048,0-7.333a46.76,46.76,0,0,1,1.168-4.714,21.353,21.353,0,0,1,1.7-4.562,4.38,4.38,0,0,1,3.861-2.341c5.53-.568,11.97-2.107,17.2.508,4.907,2.185,7.1,10.326,9.392,11.565C1572.43,847.238,1568.576,852.227,1568.8,855.858Z" transform="translate(-964.613 -522.932)"/><path class="af" d="M1606.937,923.269s-1.113,5.441-4.277,7.048a4.455,4.455,0,0,1-.642.256c-.082-.182-.03-.416.189-.694,2.723-3.542,1.97-3.338,1.157-10.757-.794-7.3,6.677-10.341,7.047-10.612-1.732,2.515-4.366,5-4.952,6.755C1604.552,917.965,1606.937,923.269,1606.937,923.269Z" transform="translate(-1007.769 -571.523)"/><path class="ag" d="M1609.28,821.816a7.45,7.45,0,0,1,7.418-3.709c5.193.619,8.861,7.73,8.12,11.005s-3.3,5.816-7.737,3.268-7.789-9.7-7.789-9.7Z" transform="translate(-1012.361 -514.614)"/><path class="ag" d="M1535.86,827.656s3.679-11.732,18.375-8.984,18.609,9.833,19.559,15.857-3.386,12.266-3.386,12.266-.634-8.16-6.714-2.856c-3.142,2.734-6.595-4.781-7.066-7.73S1538.1,825.535,1535.86,827.656Z" transform="translate(-966.174 -514.745)"/><path class="ah" d="M1530.819,844.492s-3.253-12.571,9.329-13.839,13.127,13.954,13.127,13.954l-8.25-.211-.949-4.967-.23,5.037-7.278.037-.742-2.749-.211,2.641-.846-1.161-.211,1.161Z" transform="translate(-962.765 -522.497)"/><path class="q" d="M1449.544,921.863a.118.118,0,0,1,0,.019c-.059.193-.13.371-.2.582a12.46,12.46,0,0,0-.427,1.224,11.757,11.757,0,0,0-.245,5.278c.1,1.343-5.471,1.031-5.471,1.031l-.345-1.443s-.909-1.458-2.14-3.034a21.4,21.4,0,0,0-1.855-2.118c-2.226-2.226-2.693-5.508-4.08-8.212-1.276-2.485-4.024-5.289-1.517-8.09s6.15,1.179,7.7,3.119c.4.5,3.168,5.523,3.783,4.722,1.035-1.343.823-5.883,2.27-6.814s2.789-.412,2.17,1.443-1.343,3.3-.72,4.959a15.945,15.945,0,0,1,1.365,4.915h0A7.074,7.074,0,0,1,1449.544,921.863Z" transform="translate(-900.989 -570.027)"/><path class="af" d="M1463.271,953.46a11.758,11.758,0,0,0-.245,5.278c.1,1.343-5.471,1.031-5.471,1.031l-.345-1.443s-.909-1.458-2.14-3.034a5.676,5.676,0,0,0,4.985.79A4.907,4.907,0,0,0,1463.271,953.46Z" transform="translate(-915.351 -599.8)"/><path class="q" d="M1342.464,1411.816c-.879.786-2.967,6.484-5.171,11.528-1.8,4.11-3.709,7.789-5.141,8.023-2.682.449-5.193-3.1-7.073-4.51-3.854-2.886-8.561-3.561-12.738-5.812-2.845-1.528-12.085-9.447-4.822-11.087a13.417,13.417,0,0,1,7.211.516,82.057,82.057,0,0,1,8.7,3.88c1.361.619,2.774,1.435,4.236.6.935-.534,2.967-6.157,3.071-6.157C1330.736,1408.8,1344.063,1410.4,1342.464,1411.816Z" transform="translate(-820.816 -886.243)"/><path class="ac" d="M1337.294,1424.814c-1.8,4.11-3.709,7.789-5.141,8.023-2.682.449-5.193-3.1-7.073-4.51-3.854-2.886-8.561-3.561-12.738-5.812-2.845-1.528-12.085-9.448-4.822-11.087a13.417,13.417,0,0,1,7.211.516c-.719,6.116,5.341,6.855,12.611,10.757C1331.993,1425.185,1335.335,1425.185,1337.294,1424.814Z" transform="translate(-820.816 -887.717)"/><path class="q" d="M1529.563,1430.779c-1.855,1.855-5.816.49-8.079.438-4.644-.1-8.713,2.01-13.249,2.6-2.968.371-13.821-.541-10.516-5.345a6.565,6.565,0,0,1,.508-.642,12.893,12.893,0,0,1,5.935-3.639,84.3,84.3,0,0,1,8.995-1.855c1.417-.278,2.967-.434,3.661-1.91.434-.938-1.139-6.484-1.046-6.547,0,0,11.347-6.224,10.887-4.214-.249,1.113,1.324,6.736,2.418,11.933h0a.163.163,0,0,0,0,.041C1529.986,1425.856,1530.546,1429.792,1529.563,1430.779Z" transform="translate(-941.791 -886.534)"/><path class="ac" d="M1529.563,1451.732c-1.855,1.855-5.816.49-8.079.438-4.644-.1-8.713,2.01-13.249,2.6-2.968.371-13.821-.541-10.516-5.345a6.565,6.565,0,0,1,.508-.642,12.894,12.894,0,0,1,5.935-3.639c2.867,5.193,8.034,2.374,15.95,1.35,5.033-.653,7.634-2.548,8.976-3.921a.175.175,0,0,0,0,.041C1529.986,1446.81,1530.546,1450.745,1529.563,1451.732Z" transform="translate(-941.791 -907.487)"/><path class="aa" d="M1482.065,1135.307c-5.471,9.685-21.143,8.661-30.564,10.271-.823.141-3.776.508-7.467,1.065-3.991.6-8.839,1.435-12.782,2.444a38.834,38.834,0,0,0-3.991,1.22c-2.177.823-3.535,1.736-3.405,2.708.608,4.536,20.564,68.031,20.564,69.845,0,.968-5.827,1.335-11.28.964-4.789-.326-9.273-1.22-9.273-2.778,0-3.338-6.643-25.809-10.879-34.373-4.1-8.29-9.9-30.115-10.26-31.469a.035.035,0,0,1,0-.022v-.048h0l-28.717,63.8s-4.822-1.039-9.466-2.541c-4.4-1.421-8.676-3.257-8.676-5.019,0-3.628,6.654-13.405,9.377-19.551s16.02-48.123,22.074-53.9,33.561-19.073,39.318-21.491,9.6-4.536,10.1-18.142l6.936-.427,8.042-.49,13.186-.809,7.181-.438s.215,8.81,5.056,14.863C1481.854,1116.965,1486.172,1128.026,1482.065,1135.307Z" transform="translate(-852.946 -689.55)"/><path class="ac" d="M1579.625,1121.174l-5.415,1.628a15.658,15.658,0,0,0,6.039-3.683c1.743-1.88-.471-11.424-2.6-19.169l8.042-.49v.16c.245,3.457.223,8.995.152,13.324A8.746,8.746,0,0,1,1579.625,1121.174Z" transform="translate(-990.299 -691.645)"/><path class="ac" d="M1631.591,1135.307c-5.471,9.685-21.143,8.661-30.564,10.271-.823.141-3.776.508-7.467,1.065,1.921-1.224,8.071-2.029,22.749-11.465,16.936-10.883-2.418-35.375-2.418-37.8,0,0,.178-.308.475-.809l7.181-.438s.215,8.809,5.056,14.863C1631.379,1116.965,1635.7,1128.026,1631.591,1135.307Z" transform="translate(-1002.472 -689.55)"/><path class="ac" d="M1472.9,1213.28c-.033.167-.171.8-.393,1.832A10.181,10.181,0,0,1,1472.9,1213.28Z" transform="translate(-926.322 -763.246)"/><path class="ac" d="M1416.859,1231.977l-28.717,63.8s-4.822-1.039-9.466-2.541c-.742-1.613.041-3.32,2.155-6.777,4.989-8.16,14.74-8.754,21.091-26.488,5.323-14.878,10.015-35.46,11.387-41.71C1412.949,1220.882,1412.979,1226.053,1416.859,1231.977Z" transform="translate(-867.121 -766.379)"/><path class="ac" d="M1482.157,1255.312h0a.038.038,0,0,1,0-.022Z" transform="translate(-932.39 -789.674)"/><path class="ac" d="M1542.052,1312.567c0,1.743-10.107,1-11.235.964,2.047-.3,3.06-4.848,3.546-6.413a28.531,28.531,0,0,0,1.443-11.187c-.393-3.873-1.792-7.548-2.815-11.28-3.2-11.725-7.048-23.283-11.039-34.767-.059-.174-1.161-3.027-1.076-3.079,0,0-3.019,1.814-1.51-.6s.3-2.571-3.338-2.719-7.418-1.057-2.878-1.966,6.506,1.206,5.145,0-4.236-4.08.742-2.118a11.228,11.228,0,0,0,5.831.616c-2.177.823-3.535,1.736-3.405,2.708C1522.1,1247.259,1542.052,1310.75,1542.052,1312.567Z" transform="translate(-950.578 -779.257)"/><path class="ai" d="M1540,969.765c-1.205,9.829-.742,33.413-4.08,34.922s-50.19.742-51.1,0c-.783-.653-.212-4.592-.041-5.638a.434.434,0,0,1,.289-.341l11.091-3.843s-.033-.048-.1-.13c-.8-1.02-6.25-8.008-6.25-9.551,0,0-11.187,21.7-19.351,20.378s-12.849-50.609-12.849-50.609,7.556-2.574,8.464-.742,7.708,27.519,7.708,27.519,5.69-11.9,9.974-18.624a17.16,17.16,0,0,1,3.338-4.206c3.628-2.57,13.1-8.453,13.1-8.453h0a5.361,5.361,0,0,0,.7.5h0l.245.145c2.192,1.276,7.923,3.431,14.967-2.793,0,0,3.442.864,7.418,1.981,3.709,1.031,7.86,2.274,10.2,3.231h0a9.543,9.543,0,0,1,1.417.679C1538.037,956.011,1541.212,959.943,1540,969.765Z" transform="translate(-916.949 -596.553)"/><path class="aj" d="M1511.184,988.17c-.349,1.58-.938,3.687-1.621,6.677-1.484,6.432-6.651,19.5-6.651,16.781a8.531,8.531,0,0,0-1.7-4.822S1506.9,994.891,1511.184,988.17Z" transform="translate(-944.376 -621.635)"/><path class="aj" d="M1561.54,1040.153s24.374-3.027,28.153-3.631c0,0,.6-13.568,2.118-16.232a33.316,33.316,0,0,1-10.56,14.57C1576.577,1038.358,1570.146,1039.348,1561.54,1040.153Z" transform="translate(-982.329 -641.841)"/><path class="aj" d="M1550.677,1057.291c-.8-1.02-6.246-8.008-6.246-9.551,0,0,3.854,5.749,9.125,6.2C1557.813,1054.309,1554.875,1056.65,1550.677,1057.291Z" transform="translate(-971.565 -659.109)"/><path class="aj" d="M1586.155,978.61c-1.205,9.829-.742,33.413-4.08,34.922s-50.19.742-51.095,0c0,0,41.458.608,45.839-3.476s7.418-15.579,7.255-22.674,1.484-17.389-4.169-25.023a9.543,9.543,0,0,1,1.417.679C1584.193,964.856,1587.368,968.788,1586.155,978.61Z" transform="translate(-963.104 -605.398)"/><path class="aj" d="M1596.937,950.262c-2.73,2.381-10.757,5.638-15.95,4.292-5.634-1.484-6.677-3.472-6.717-3.635h0a1.9,1.9,0,0,0,.245.145c2.192,1.276,7.923,3.431,14.967-2.793C1589.5,948.281,1592.946,949.145,1596.937,950.262Z" transform="translate(-990.337 -596.535)"/><path class="q" d="M1492.845,1089.759c-1.039.271-2.511.645-4.028,1.005-2.114.5-4.547-.508-7.122-1.428-.842-.3-1.7-.594-2.57-.827-2.667-.7-3.468-.338-4.625.256-.371.185-.768.4-1.276.608-1.8.742-4.2-.79-4.08-1.636a.456.456,0,0,1,.3-.371c.5-.237,1.762-.927,3.257-1.669,2.278-1.113,5.1-2.378,6.714-2.378,1.38,0,5.193.215,8.646.423,1.524.085,2.967.178,4.08.245-.082.49-.256,1.569-.338,2.656-.093,1.3-.067,2.6.371,2.967A2.014,2.014,0,0,0,1492.845,1089.759Z" transform="translate(-924.202 -681.491)"/><path class="af" d="M1492.845,1095.421c-1.039.271-2.511.646-4.028,1.005-2.114.5-4.547-.508-7.122-1.428-.842-.3-1.7-.594-2.57-.827-2.667-.7-3.468-.338-4.625.256-.371.186-.768.4-1.276.608-1.8.742-4.2-.79-4.08-1.636.519.545,1.369,1.027,3.372.334,2.819-.975,3.9-2,7.322-.69s8.761,1.91,11.25-.263a2.752,2.752,0,0,1,.719-.46c-.093,1.3-.067,2.6.371,2.968A2.006,2.006,0,0,0,1492.845,1095.421Z" transform="translate(-924.202 -687.153)"/><path class="i" d="M1478.89,944.432a13.346,13.346,0,0,0,.282-2.422,7.075,7.075,0,0,1-.282,2.422Z" transform="translate(-930.335 -592.597)"/><path class="ah" d="M1622.462,836.118h0a4.014,4.014,0,0,1-2.225.293c-.905-4.251-3.438-8.869-10.226-12.048a8,8,0,0,1,1.35-1.513C1616.227,825.261,1622.336,829.582,1622.462,836.118Z" transform="translate(-1012.82 -517.636)"/><path class="af" d="M1580.554,909.582c-1.436,1.543-5.508,6.339-8.183,9.151-.237-2.852-.371-5.3-.371-5.3s8.09-3.709,8.616-6.8a19.724,19.724,0,0,0,.456-3.783S1582.516,907.464,1580.554,909.582Z" transform="translate(-988.909 -567.962)"/><path class="s" d="M1527.493,885.017a4.933,4.933,0,1,1,4.933-4.933A4.933,4.933,0,0,1,1527.493,885.017Zm0-9.44a4.507,4.507,0,1,0,4.5,4.507A4.507,4.507,0,0,0,1527.493,875.577Z" transform="translate(-957.807 -550.536)"/><path class="s" d="M1560.124,884.808a5.234,5.234,0,1,1,5.234-5.234A5.234,5.234,0,0,1,1560.124,884.808Zm0-10.015a4.781,4.781,0,1,0,4.777,4.781A4.781,4.781,0,0,0,1560.124,874.793Z" transform="translate(-978.145 -550.027)"/><path class="x" d="M1250.791,1102H1178.68c.3,5.442,8.464,4.533,8.464,4.533h149.3s8.16.909,8.464-4.533Z" transform="translate(-741.48 -693.243)"/><path class="q" d="M1044.647,538.038a17.661,17.661,0,0,0-10.92-10.5c-3.045-1.083-7.452-2.322-10.508-.89-3.9,1.825-8.335,4.855-9.21,9.388a16.749,16.749,0,0,0-.6,4.867c.022.185.119.39.134.564.111,1.4-1.762,3-2.481,4.08-.453.686-2.111,2.871-1.25,3.709,1.206,1.194,1.209-.267,1.206,1.194,0,1.235-.059,2.47.033,3.709s.742,2.329.493,3.557c-.282,1.484-3.086,5.753-.582,6.677,2.882,1.05,9.692-2.4,11.74,1.384s1.673,5.434,1.673,5.434l1.484-.953c1.855,2.723,4.981,5.271,5.668,5.271,1.217,0,9.777-3.861,9.692-6.58-.108-3.386.868-7.27,1.328-10.679.419-3.094.642-6.306,1.721-9.236a11.594,11.594,0,0,1,.716-1.614C1046.446,544.755,1045.612,540.7,1044.647,538.038Z" transform="translate(-635.092 -330.892)"/><path class="q" d="M837.043,558.956v.152c-.13,4.659,3.183,7.789,4.184,5.03.315-.868.571-1.766.8-2.552.5-1.706.875-2.878,1.484-2.014a5.24,5.24,0,0,1,.111,2.856h0c-.289,2.574-.972,6.232-.441,8.865.72,3.568,8.665,14.492,10.5,16.981l.371.512L844.1,602.722s-.593-3.016-1.484-7.007c-1.569-7.073-4.054-17.215-5.779-19.04-2.7-2.852-7.048-8.416-7.2-14.292s1.32-7.493,4.158-9.577c2.251-1.651,3.042.349,3.2,3.568" transform="translate(-521.902 -347.386)"/><path class="ac" d="M999.018,1287.73s6.836,11.836,6.836,14-10.5,7.418-12.352,7.1-1.673-3.928-3.709-2.467c-2.129,1.528-2.723,4.629-12.808,5.864-3.194.393-7.418-1.161-7.975-3.895-.234-1.139.289-1.714,1.947-3.153,2.634-2.289,6.22-2.226,9.273-4.08,1.855-1.113,5.352-3.78,4.778-6.376C984.393,1291.951,997.163,1288.962,999.018,1287.73Z" transform="translate(-609.549 -810.081)"/><path class="ac" d="M1064.409,1291.738c0,.935,2.778,11.432,2.47,13.283s-12.088,1.955-12.088,1.031-.1-1.339-2.571-1.339-10.045,3.505-14.366,2.526-12.982-2.533-8.335-5,11.421-2.467,13.583-4.629,4.451-7.1,4.451-7.1Z" transform="translate(-646.808 -811.83)"/><path class="aa" d="M1017.7,919.357c-2.47,11.528-4.867,2.882-2.433,28.821s-3.743,27.582-2.915,40.753,4.106,22.229,2.878,32.934.26,16.054-2.967,16.881c-2.89.742-13.832,4.47-16.907.13a4.327,4.327,0,0,1-.716-1.777c-.371-2.133-.79-5.3-1.224-8.88-.976-8.16-2.036-18.513-2.9-23.658-1.232-7.418-4.937-30.449-4.937-37.04V938.708s-9.881,26.758-11.936,35.4a13.309,13.309,0,0,0-.33,3.079q0,.345,0,.7a3.524,3.524,0,0,0,.03.575h0v.252c0,.2.033.408.052.616h0c.026.245.056.493.089.742s.067.5.1.742.1.619.159.938q.052.26.1.534a115.522,115.522,0,0,0,3.483,12.3c.115.371.234.742.371,1.113.085.263.167.523.249.783.148.475.3.95.449,1.424.115.371.226.742.341,1.113a.481.481,0,0,0,.03.1c.1.3.185.612.278.916a.568.568,0,0,1,.026.085c.163.553.326,1.113.482,1.651a.666.666,0,0,1,.026.093q.256.912.5,1.818l.211.82c0,.027,0,.054,0,.082.063.245.122.49.182.742s.115.49.171.742.108.486.16.742q.237,1.113.415,2.166c.037.193.067.371.1.575.041.275.082.549.119.823,1.643,12.352,1.643,10.7,4.113,15.642s3.3,11.128,1.235,11.528l-.282.067-.152.045q-.237.067-.512.167c-.193.067-.4.141-.608.223l-.427.171-.371.145-.419.174-.323.134-.108.048c-.23.093-.46.193-.7.293l-.657.274c-.464.193-.931.371-1.395.564-.152.063-.308.119-.46.178a11.138,11.138,0,0,1-3.891.953c-2.47-.145-6.176,4.384-8.238-1.792s-10.234-23.939-12.3-34.615-7.418-18.917-9.054-23.453,2.055-31.284,3.29-39.522,7.418-26.336,11.128-33.346,4.941-20.086,4.941-20.086h46.109S1020.165,907.833,1017.7,919.357Z" transform="translate(-595.41 -558.727)"/><path class="ac" d="M1017.428,1116.944l-.282.067-.152.044q-.237.067-.512.167c-.189.063-.393.141-.608.223l-.427.171-.371.145-.419.174-.43.182c-.23.093-.46.193-.7.293l-.656.274c-.464.193-.931.371-1.395.564-.152.063-.308.119-.46.178a25.325,25.325,0,0,0,1.9-5.779c1.272-7.819-2.916-7.418-6.621-18.112s-3.709-13.583-6.176-30.045-9.878-7.819,0-25.935,6.588-22.626,12.8-24.7,4.236,4.369,4.236,4.369-.371.864-.976,2.329v-3.4s-9.881,26.758-11.936,35.4a13.305,13.305,0,0,0-.33,3.079q0,.345,0,.7a3.526,3.526,0,0,0,.03.575h0v.252c0,.2.033.408.052.616h0c.026.245.056.49.089.742s.067.5.1.742.1.62.159.938l.1.534a115.52,115.52,0,0,0,3.483,12.3c.115.371.234.742.371,1.113.085.263.167.523.249.783.148.475.3.949.449,1.424.115.371.23.742.341,1.113a.482.482,0,0,0,.03.1c.1.3.185.612.278.916a.576.576,0,0,1,.026.085c.163.553.326,1.113.482,1.651a.658.658,0,0,1,.026.093q.256.912.5,1.818l.211.82q0,.041,0,.082c.063.245.122.49.182.742s.115.49.171.742.108.486.16.742q.237,1.113.415,2.166c.037.193.067.371.1.575.041.275.082.549.119.823,1.643,12.352,1.643,10.7,4.113,15.642S1019.491,1116.532,1017.428,1116.944Z" transform="translate(-626.015 -638.16)"/><path class="ak" d="M1051.91,967.5c0,6.591,3.709,29.64,4.941,37.04.857,5.145,1.918,15.479,2.893,23.657.434,3.579.846,6.747,1.224,8.88a4.311,4.311,0,0,0,.716,1.777c3.075,4.34,14.017.612,16.907-.13,3.22-.827,1.725-6.176,2.967-16.881s-2.058-19.763-2.878-32.934,5.349-14.837,2.916-40.753-.037-17.292,2.433-28.821-5.349-31.2-5.349-31.2h-13.605c.241,9.878,6.083,36.866-11.387,48.491-1.009.671-1.228,2.263-1.777,3.665Z" transform="translate(-661.732 -558.702)"/><path class="aa" d="M1037.74,1202a287.339,287.339,0,0,0,3.409,34.047,20.341,20.341,0,0,1,3.082-1.113c2.062-.412,1.235-6.588-1.235-11.528s-2.47-3.29-4.114-15.642A51.83,51.83,0,0,0,1037.74,1202Z" transform="translate(-652.818 -756.15)"/><path class="u" d="M862.341,649.25c.275,2.508,4.54,10.853,8.49,17.593.582.983,1.15,1.936,1.7,2.823,4.325,7.022,33.654-2.548,36.436.642,1.543,1.769,2.8,17.971,3.5,33.131.571,12.177.371,23.962.082,26.8-.616,6.38,2.281,1.951,5.679,2.188s8.335.4,10.5,0,8.027-.553,11.425-.679c1.717-.071,3.743-.519,5.686-.723s3.743-.163,5.119.723c2.778,1.784,8.338-.193,10.5-3.064s1.235-8.617,1.235-12.444a4.617,4.617,0,0,1,.26-1.554c.823-2.285,3.62-3.824,8.7-5.338,1.206-.371,2.537-.716,4.006-1.079,8.954-2.226,4.325-7.337,4.013-16.907s-2.778-29.028-4.013-35.731-20.686-13.394-24.392-14.67-2.159-6.38-2.159-6.38c-1.217.894-5.671.783-9.818.519-3.219-.215-6.257-.519-7.474-.519-2.778,0-.924,3.194-4.321,6.38s-5.868,0-12.04,0-31.187,9.892-33.658,9.57-6.172-11.165-6.172-11.165S862.033,646.379,862.341,649.25Z" transform="translate(-542.476 -399.199)"/><path class="u" d="M1062.13,694.761c9.881,8.375,18.836,8.064,13.583,17.637-4.514,8.231-10.627,13.49-6.551,18.635a7.93,7.93,0,0,1,5.119.723c2.778,1.784,8.338-.193,10.5-3.064s1.235-8.613,1.235-12.441a4.639,4.639,0,0,1,.26-1.558c.823-2.285,3.62-3.82,8.7-5.334,1.205-.371,2.537-.716,4.006-1.083,8.954-2.226,4.325-7.333,4.013-16.907s-2.778-29.029-4.013-35.727-20.686-13.394-24.392-14.674-2.159-6.38-2.159-6.38c-1.217.9-5.672.786-9.818.519a30.081,30.081,0,0,1,5.694,26.654C1064.6,676.89,1052.248,686.393,1062.13,694.761Z" transform="translate(-665.802 -399.206)"/><path class="ab" d="M1043.043,811.05s7.979,4.629,9.377,10.189-7.838,8.954-7.545,13.583,3.09-6.792,2.93-11.869S1042.46,813.209,1043.043,811.05Z" transform="translate(-656.125 -510.213)"/><path class="ab" d="M885.24,717.848c.582.983,1.15,1.936,1.7,2.823,4.325,7.022,33.654-2.548,36.436.642,1.543,1.769,2.8,17.971,3.5,33.131,1.272-6.78,2.448-11.1,3.642-19.93,1.543-11.424-.026-19.44-8.209-18.821s-19.915,5.089-29.485,4.473C888.73,719.9,886.724,719.072,885.24,717.848Z" transform="translate(-556.884 -450.205)"/><path class="t" d="M1041.3,553.536a1.624,1.624,0,0,0,.95-.946c1.191-3.179,6.135-16.669,5.935-20.564-.223-4.425-4.648-3.539-6.194-6.636s-1.113-5.53-6.417-6.194-17.237-1.194-21.016,7.756c-2.033,4.822,3.446,3.464,3.227,5.9s1.981,3.038.872,3.709-2.6,4.714-2.6,7.367,1.113,7.7-2.645,8.364-1.7-.653-2.578-1.317c-.742-.553-2.389,7.066-2.226,7.908.931,4.292,5.953,3.249,8.958,2.092,5.757-2.225,3.42-4.777,1.855-9.473-.441-1.324-2.318-10.731.475-12.01,3.809-1.743,4.919-.063,4.778,2.53a41.527,41.527,0,0,1-.668,4.269c-.319,1.855-.46,3.591.4,4.522C1027.227,553.825,1031.819,557.085,1041.3,553.536Z" transform="translate(-634.487 -326.408)"/><path class="u" d="M804.38,547.759l11.87,4.329a11.161,11.161,0,0,0,0,2.556c-.041-.182-1.228-.575-1.387-.653l-3.283-1.554c-2-.946-4.01-1.873-6.009-2.83-.634-.3-1.962-.6-2.118-1.4C803.3,547.5,803.79,547.54,804.38,547.759Z" transform="translate(-505.416 -344.493)"/><path class="u" d="M858.326,566.488s-.241,4.043-1.206,3.524l-.964-.512h0l-1.6-.842-4.985-2.63c.022-.909.022-1.78-.022-2.578h0Z" transform="translate(-534.432 -354.453)"/><line class="q" x2="0.022" y2="2.578" transform="translate(318.456 208.993)"/></svg>