<svg width="575" height="515" viewBox="0 0 575 515" fill="none" xmlns="http://www.w3.org/2000/svg">
<path d="M428.295 147.255C457.318 137.282 577.301 167.054 571.818 184.523C558.017 228.495 503.776 279.997 481.782 292.092C435.175 317.722 377.655 164.657 428.295 147.255Z" stroke="black" stroke-width="3.99675"/>
<path d="M458.604 185.37C434.424 182.994 541.091 176.826 548.64 192.993C554.125 204.738 476.948 275.108 479.999 271.764" stroke="black" stroke-width="3.99675"/>
<path d="M265.012 76.2631C252.306 49.5399 147.107 -10.9253 136.838 4.4737C106.382 50.1454 92.777 133.705 108.628 149.265C146.08 186.028 287.183 122.89 265.012 76.2631Z" stroke="black" stroke-width="3.99675"/>
<path d="M199.076 91.5036C217.397 106.475 158.039 17.973 146.605 26.1671C126.038 40.9058 115.514 153.427 135.016 127.839" stroke="black" stroke-width="3.99675"/>
<path d="M49.2764 292.247C49.2764 292.247 2.07644 290.361 2.0002 306.022C1.93398 319.624 18.6775 329.806 28.4749 338.364C38.9215 347.489 66.2958 356.93 66.2958 356.93" stroke="black" stroke-width="3.99675"/>
<path d="M115.778 423.71C115.778 423.71 99.2272 430.348 91.8249 435.089C82.9986 440.742 72.9016 446.24 67.8716 455.153C64.2136 461.635 60.6523 470.756 64.7199 477.013C70.2016 485.447 83.9924 485.385 94.3463 486.596C108.158 488.212 122.626 487.119 135.949 483.302C150.985 478.995 177.237 461.741 177.237 461.741" stroke="black" stroke-width="3.99675"/>
<path d="M304.384 475.891C304.384 475.891 322.839 493.971 334.247 500.03C345.566 506.042 358.34 510.226 371.242 511.465C384.334 512.721 400.758 515.67 410.466 507.23C415.388 502.95 415.929 494.784 414.477 488.596C412.422 479.832 404.242 473.327 397.54 466.997C390.606 460.448 373.917 450.481 373.917 450.481" stroke="black" stroke-width="3.99675"/>
<path d="M481.508 276.846C481.508 388.971 384.646 479.866 265.16 479.866C145.674 479.866 48.8116 388.971 48.8116 276.846C48.8116 164.722 145.674 73.8267 265.16 73.8267C384.646 73.8267 481.508 164.722 481.508 276.846Z" fill="white" stroke="black" stroke-width="4.0215" stroke-linecap="round" stroke-linejoin="round"/>
<path d="M256.9 477.459C155.538 473.84 70.5675 402.954 53.7385 307.973C51.3282 294.37 51.0375 262.344 53.2027 248.943C56.2837 229.872 63.534 207.049 70.8237 193.472C72.1949 190.918 76.9018 184.297 81.2836 178.758C85.6653 173.219 92.9108 162.844 97.3847 155.701C120.928 118.114 176.144 86.8073 234.207 78.1245C239.754 77.2949 253.653 76.6162 265.094 76.6162C287.241 76.6162 298.825 77.9023 318.043 82.4946C354.337 91.1672 386.164 107.976 414.146 133.251C446.808 162.751 468.802 202.277 476.523 245.349C478.929 258.775 479.212 292.118 477.03 305.241C470.591 343.977 454.199 377.608 427.107 407.67C418.957 416.713 398.215 435.206 396.222 435.206C395.746 435.206 395.624 426.851 395.95 416.64C396.525 398.66 396.464 398.073 394.013 398.073C391.629 398.073 391.442 399.066 390.794 415.143C389.778 440.388 389.66 440.64 375.114 448.745C361.254 456.468 361.602 456.498 351.728 446.724C345.394 440.454 335.266 422.715 333.661 415.08C332.999 411.927 332.29 411.199 330.165 411.487C326.887 411.931 327.094 413.503 332.048 425.746C336.472 436.68 341.78 444.603 349.858 452.332C353.162 455.493 355.864 458.257 355.864 458.474C355.864 459.011 345.528 463.052 336.324 466.113C311.91 474.231 282.83 478.385 256.9 477.459V477.459Z" fill="#FCD7DF"/>
<path d="M90.4874 484.197C72.2395 482.388 65.3399 478.386 65.6934 469.815C66.1195 459.482 72.4999 450.525 85.6611 441.783C93.7233 436.428 112.542 426.821 114.97 426.821C115.638 426.821 119.373 429.472 123.269 432.712C133.217 440.983 147.326 450.052 160.646 456.736L172.018 462.444L164.661 466.867C149.928 475.724 135.154 481.745 123.416 483.675C111.338 485.66 106.089 485.744 90.4874 484.197V484.197Z" fill="#FCD7DF"/>
<path d="M47.5636 346.659C38.5415 342.454 31.7458 338.131 23.8647 331.585C1.65704 313.138 -1.353 303.099 13.8374 298.142C20.7676 295.881 45.7183 293.304 47.0007 294.717C47.4705 295.235 48.5217 300.64 49.3367 306.728C50.9101 318.483 55.2066 335.085 59.4907 345.964C60.9183 349.59 61.6647 352.556 61.1496 352.556C60.6344 352.556 54.5207 349.902 47.5636 346.659V346.659Z" fill="#FCD7DF"/>
<path d="M369.102 508.895C349.451 505.898 334.985 499.323 319.646 486.418L309.36 477.764L322.211 474.547C335.655 471.181 349.071 466.661 356.952 462.84C361.02 460.869 361.991 460.792 364.721 462.228C369.305 464.64 376.438 464.342 380.127 461.585L383.297 459.215L388.176 462.617C396.687 468.551 409.588 482.249 411.286 487.155C413.425 493.335 412.32 501.733 408.915 505.177C403.431 510.724 389.576 512.017 369.102 508.895Z" fill="#FCD7DF"/>
<path d="M108.395 129.955C108.883 126.498 108.476 124.124 107.039 122.039C101.093 113.417 109.876 67.515 123.73 34.8044C128.726 23.0101 135.477 10.2449 138.749 6.40651C141.19 3.54254 141.525 3.48655 148.232 4.82322C166.432 8.45025 204.02 27.7071 231.559 47.5126C242.523 55.3977 258.791 69.5534 258.791 71.2091C258.791 71.7881 255.88 72.2619 252.322 72.2619C244.142 72.2619 223.38 75.3128 210.261 78.4427C200.507 80.7697 200.13 80.7764 198.554 78.6507C197.659 77.4427 193.117 70.9471 188.461 64.2162C170.993 38.9597 153.722 21.9785 147.433 23.8751C136.031 27.3135 125.066 63.7246 123.056 104.82L122.255 121.206L114.977 128.05L107.698 134.893L108.395 129.955Z" fill="#FCD7DF"/>
<path d="M483.195 279.837V271.667L499.685 256.112C526.589 230.734 546.699 207.579 550.256 197.885C554.689 185.803 535.537 180.655 486.257 180.681L458.431 180.696L452.272 171.098C448.884 165.82 443.675 158.536 440.697 154.913L435.283 148.325L446.317 147.972C479.117 146.925 553.006 166.214 566.655 179.387L570.061 182.674L567.171 190.237C562.905 201.404 552.552 218.454 540.978 233.371C530.355 247.063 494.759 281.821 487.24 285.844L483.195 288.008V279.838V279.837Z" fill="#FCD7DF"/>
<path d="M368.431 458.933C367.344 458.587 366.514 458.247 366.587 458.178C366.66 458.109 368.695 457.012 371.111 455.74L375.503 453.428L377.642 454.78L379.78 456.131L378.561 457.14C375.525 459.649 372.408 460.201 368.431 458.933V458.933Z" fill="#FCD7DF"/>
<path d="M380.256 452.492C379.606 452.068 379.075 451.639 379.077 451.538C379.08 451.282 384.865 447.921 385.03 448.079C385.212 448.252 382.068 453.106 381.717 453.193C381.564 453.231 380.906 452.915 380.256 452.492V452.492Z" fill="#FCD7DF"/>
<path d="M361.143 455.455C354.314 451.332 347.914 444.775 342.006 435.847C339.557 432.148 336.894 426.219 333.885 417.771C332.597 414.154 331.819 411.773 331.9 411.696C332.039 411.564 332.818 412.511 333.045 413.087C333.175 413.416 333.434 414.318 333.621 415.093C335.051 421.016 340.384 431.537 346.18 439.87C348.679 443.462 350.258 445.348 353.055 448.081C356.916 451.853 358.316 453.014 359.845 453.707C362.119 454.738 363.729 454.57 367.33 452.926C369.771 451.811 378.361 447.058 381.315 445.187C388.064 440.914 389.55 437.706 390.336 425.712C390.397 424.78 390.55 421.707 390.675 418.883C390.8 416.058 391.001 411.699 391.122 409.195C391.243 406.691 391.347 404.523 391.352 404.378L391.362 404.113L391.447 404.378C391.803 405.5 392.004 420.658 391.699 423.435C391.09 428.987 389.794 435.722 388.502 440.047C388.165 441.176 387.889 442.114 387.889 442.13C387.889 442.184 385.517 443.709 383.241 445.117C378.817 447.855 373.573 450.834 369.001 453.208C366.792 454.356 362.774 456.362 362.686 456.362C362.664 456.362 361.97 455.954 361.143 455.455H361.143Z" fill="#FCD7DF"/>
<path d="M300.193 475.219C300.193 474.859 300.234 474.78 300.444 474.737C300.581 474.709 301.998 474.466 303.592 474.198C314.207 472.414 325.24 469.745 334.625 466.693C344.103 463.61 355.908 459.061 355.908 458.492C355.908 458.336 354.43 456.755 352.679 455.038C347.032 449.501 345.113 447.461 342.756 444.488C338.197 438.738 334.887 432.737 331.261 423.647C329.001 417.983 328.036 414.985 328.059 413.702L328.068 413.218L328.272 413.801C328.384 414.121 328.986 415.86 329.61 417.665C332.578 426.247 335.821 433.669 338.168 437.252C344.222 446.493 350.959 453.631 357.556 457.792C358.002 458.073 358.328 458.34 358.28 458.385C358.232 458.43 357.14 458.928 355.853 459.491C339.745 466.542 322.616 471.726 305.374 474.767C303.72 475.059 302.015 475.35 301.586 475.414C301.157 475.479 300.668 475.557 300.499 475.59C300.205 475.646 300.193 475.631 300.193 475.219V475.219Z" fill="#FCD7DF"/>
<path d="M321.891 489.4C319.586 487.522 316.367 484.752 313.587 482.253C308.57 477.743 308.263 477.453 308.439 477.394C308.531 477.364 309.927 477.073 311.542 476.748C323.662 474.307 336.191 470.664 347.637 466.251C352.074 464.54 357.941 462.072 360.681 460.765L361.693 460.282L362.935 460.918C365.327 462.144 367.333 462.881 369.559 463.353C370.92 463.642 373.459 463.699 374.684 463.468C377.332 462.968 379.485 461.798 381.858 459.569C382.657 458.818 383.29 458.303 383.362 458.344C384.287 458.877 389.31 462.42 391.566 464.131C394.21 466.137 395.033 466.848 399.412 470.909C403.359 474.57 405.671 476.891 407.394 478.925C410.483 482.57 412.598 486.676 413.13 490.057L413.209 490.56H412.695C412.412 490.56 412.181 490.548 412.18 490.533C412.172 490.287 411.582 487.891 411.405 487.384C410.758 485.53 408.984 482.882 406.157 479.547C401.414 473.951 394.819 467.578 389.895 463.829C388.472 462.746 383.631 459.352 383.377 459.26C383.278 459.224 382.613 459.65 381.68 460.349C379.515 461.968 379.417 462.034 378.561 462.442C377.614 462.894 376.429 463.275 375.186 463.528C373.828 463.804 370.071 463.801 368.729 463.523C367.242 463.215 366.215 462.865 364.638 462.13C362.969 461.352 362.297 461.18 361.262 461.267C360.231 461.353 359.803 461.51 356.298 463.088C350.572 465.666 346.005 467.41 339.194 469.618C332.298 471.853 327.312 473.23 314.902 476.326C311.929 477.068 309.46 477.705 309.414 477.743C309.3 477.838 320.324 487.112 323.259 489.391C323.964 489.938 324.588 490.425 324.646 490.473C324.705 490.521 324.429 490.56 324.033 490.56L323.315 490.56L321.891 489.4V489.4V489.4Z" fill="#FCD7DF"/>
<path d="M393.126 438.497C393.126 438.446 393.279 437.772 393.466 436.997C394.092 434.406 394.833 430.258 395.405 426.135L395.669 424.229L395.681 426.612C395.694 429.317 395.884 434.076 396.003 434.71C396.056 434.993 396.148 435.144 396.282 435.169C397.448 435.382 408.904 425.671 419.178 415.759C424.316 410.803 427.221 407.735 431.236 403.024L432.517 401.521L433.175 401.52C433.791 401.519 433.822 401.531 433.665 401.705C433.573 401.807 432.927 402.557 432.231 403.372C425.181 411.627 416.121 420.51 407.278 427.84C403.292 431.144 399.158 434.331 395.188 437.159C393.186 438.585 393.126 438.624 393.126 438.497V438.497Z" fill="#FCD7DF"/>
<path d="M372.18 459.875C370.479 459.821 368.502 459.298 366.337 458.327L366.023 458.186L366.323 458.045C367.782 457.356 372.093 455.12 374.493 453.807C374.991 453.535 375.427 453.297 375.462 453.28C375.52 453.25 375.553 453.263 375.796 453.413C376.023 453.551 379.827 455.952 379.91 456.008C379.926 456.019 379.91 456.055 379.871 456.094C379.816 456.149 379.799 456.155 379.774 456.124C379.757 456.104 378.789 455.486 377.622 454.751L375.501 453.415L373.29 454.579C369.819 456.406 367.495 457.645 366.742 458.07C366.654 458.12 366.582 458.175 366.582 458.192C366.579 458.331 368.408 458.986 369.548 459.255C370.762 459.542 371.909 459.652 372.891 459.576C374.418 459.458 375.721 459.034 377.069 458.218C377.678 457.849 378.178 457.476 379.196 456.631C379.492 456.385 379.74 456.189 379.747 456.196C379.765 456.213 379.042 456.946 378.743 457.215C376.632 459.11 374.559 459.95 372.18 459.875L372.18 459.875Z" fill="#FCD7DF"/>
<path d="M380.198 452.592C379.314 452.03 378.584 451.562 378.574 451.553C378.565 451.544 378.956 451.307 379.443 451.025C381.105 450.066 383.535 448.61 385.259 447.539C385.519 447.377 385.735 447.248 385.74 447.253C385.769 447.281 384.98 448.741 384.493 449.558C383.607 451.046 381.916 453.625 381.833 453.617C381.818 453.615 381.082 453.154 380.198 452.592V452.592ZM381.852 453.098C382.465 452.488 384.933 448.655 385.04 448.149C385.055 448.074 385.05 448.063 385.002 448.063C384.918 448.063 384.248 448.385 383.588 448.744C381.832 449.697 379.635 451.028 379.173 451.418L379.05 451.522L379.104 451.601C379.331 451.932 380.652 452.811 381.373 453.11C381.651 453.225 381.726 453.224 381.852 453.098H381.852Z" fill="#FCD7DF"/>
<path d="M384.494 459.068C384.069 458.776 383.371 458.332 383.336 458.332C383.283 458.332 382.926 458.603 382.591 458.896C382.426 459.041 382.286 459.155 382.279 459.149C382.273 459.143 382.391 459.011 382.541 458.856C382.692 458.701 382.899 458.478 383.002 458.361L383.189 458.148L383.361 458.263C383.455 458.326 383.796 458.554 384.117 458.769C384.713 459.167 384.805 459.233 384.757 459.232C384.742 459.231 384.624 459.158 384.494 459.068V459.068Z" fill="#FCD7DF"/>
<path d="M373.916 463.811C373.916 463.774 373.919 463.759 373.929 463.759C373.964 463.759 374.373 463.708 374.6 463.674C376.718 463.365 378.608 462.671 379.958 461.71C380.111 461.601 383.034 459.421 383.061 459.396C383.082 459.376 383.019 459.413 382.861 459.514C382.667 459.638 382.553 459.715 382.268 459.916C382.028 460.086 381.994 460.11 381.096 460.779C379.499 461.967 379.315 462.087 378.491 462.468C378.054 462.671 377.663 462.826 377.186 462.987C376.343 463.271 375.358 463.515 374.733 463.595C374.574 463.615 374.17 463.654 374.031 463.662L373.916 463.668V463.615V463.563H373.953C374.012 463.563 374.331 463.527 374.502 463.501C374.71 463.469 375.088 463.39 375.421 463.309C377.34 462.843 379.03 461.964 380.781 460.522C381.146 460.222 381.423 459.976 382.014 459.429C382.704 458.792 383.249 458.35 383.347 458.35C383.432 458.35 385.462 459.733 387.431 461.132L387.931 461.487V461.941C387.931 462.303 387.929 462.393 387.919 462.386C387.63 462.171 385.583 460.735 384.74 460.157C383.832 459.533 383.4 459.25 383.37 459.26C383.364 459.262 384.388 459.98 385.645 460.857L387.931 462.451V463.156V463.862H380.923H373.916V463.811V463.811Z" fill="#FCD7DF"/>
<path d="M373.916 463.714V463.678L374.017 463.671C374.327 463.652 374.795 463.6 375.043 463.557C375.224 463.526 375.63 463.437 375.895 463.371C376.871 463.129 377.725 462.834 378.518 462.465C379.328 462.088 379.5 461.976 381.096 460.789C381.897 460.194 381.953 460.152 382.15 460.01C382.432 459.806 382.847 459.525 382.855 459.532C382.859 459.536 380.771 461.101 380.136 461.571C379.605 461.964 379.113 462.254 378.471 462.553C377.232 463.13 375.74 463.536 374.156 463.726C373.899 463.757 373.916 463.758 373.916 463.714V463.714Z" fill="#FCD7DF"/>
<path d="M386.015 461.106C383.851 459.596 383.487 459.341 383.493 459.335C383.511 459.318 385.124 460.423 386.631 461.484C387.657 462.207 387.931 462.404 387.931 462.422C387.931 462.432 387.93 462.44 387.929 462.439C387.927 462.439 387.066 461.839 386.015 461.106H386.015Z" fill="#FCD7DF"/>
<path d="M378.378 106.736C366.508 99.7186 354.203 93.9511 341.176 89.3001C324.781 83.4468 304.855 78.8764 289.659 77.4843C277.263 76.3487 257.965 76.2896 241.989 77.3383C236.879 77.6737 235.526 77.8303 230.485 78.6694C211.196 81.8806 191.801 87.6592 173.675 95.5954C170.24 97.0991 163.062 100.531 160.102 102.085C158.661 102.841 157.438 103.46 157.384 103.46C157.33 103.46 157.286 103.273 157.286 103.045C157.286 102.66 157.516 102.509 160.477 100.962C185.703 87.775 212.413 79.7207 241.044 76.6671C249.679 75.7462 254.162 75.5358 265.154 75.5358C276.142 75.5358 280.597 75.7446 289.265 76.6661C321.276 80.0691 351.322 89.8843 378.735 105.894C381.479 107.496 381.533 107.537 381.533 108.039C381.533 108.321 381.514 108.551 381.49 108.551C381.467 108.551 380.066 107.734 378.378 106.736H378.378Z" fill="#FCD7DF"/>
<path d="M225.224 75.5435C225.331 75.4417 233.502 74.1853 237.34 73.6805C243.757 72.8365 247.131 72.5325 252.39 72.3244C255.718 72.1927 258.131 71.8853 258.575 71.5363C259.154 71.0814 258.568 70.3154 255.002 66.8728C248.282 60.3853 237.978 51.946 229.382 45.8892C208.727 31.3357 182.103 16.7218 162.565 9.21336C161.005 8.61381 159.179 7.93667 158.507 7.70859C157.361 7.31927 157.286 7.26704 157.286 6.85469C157.286 6.3265 157.001 6.26354 160.832 7.63876C180.414 14.6692 208.827 30.2847 231.352 46.3959C243.899 55.3699 253.216 63.4301 259.029 70.3381C259.841 71.3028 260.505 72.1348 260.505 72.1871C260.505 72.2394 259.211 72.3281 257.63 72.3842C247.681 72.7373 238.434 73.6101 228.911 75.0949C225.626 75.6071 225.088 75.6725 225.224 75.5435Z" fill="#434959"/>
<path d="M127.215 115.279C126.389 113.234 128.136 90.1688 130.038 78.006C134.132 51.8309 143.333 28.2958 149.473 28.2958C152.214 28.2958 163.417 39.0939 172.709 50.6919C181.347 61.4741 194.431 80.239 194.431 81.846C194.431 82.4384 191.453 83.9264 187.813 85.1528C171.154 90.7652 150.048 101.847 130.606 115.192C128.27 116.795 127.832 116.806 127.215 115.279V115.279V115.279Z" fill="#434959"/>
<path d="M483.181 261.874C483.088 255.699 478.521 231.318 475.778 222.345C472.303 210.982 467.276 198.112 463.671 191.352L460.516 185.438L473.958 184.567C489.681 183.549 523.491 185.61 534.087 188.232C543.583 190.582 546.166 191.989 546.166 194.814C546.166 200.775 528.314 222.095 501.047 248.698C483.267 266.045 483.245 266.061 483.181 261.874V261.874Z" fill="#434959"/>
<path d="M329.567 411.731C329.567 411.731 334.897 428.83 339.819 436.293C344.955 444.083 351.29 451.654 359.431 456.621C363.898 459.347 369.423 462.461 374.585 461.28C379.692 460.112 383.079 455.002 385.728 450.692C390.473 442.973 392.106 433.725 393.306 424.859C394.48 416.177 392.86 398.602 392.86 398.602" fill="#FCD7DF"/>
<path d="M329.567 411.731C329.567 411.731 334.897 428.83 339.819 436.293C344.955 444.083 351.29 451.654 359.431 456.621C363.898 459.347 369.423 462.461 374.585 461.28C379.692 460.112 383.079 455.002 385.728 450.692C390.473 442.973 392.106 433.725 393.306 424.859C394.48 416.177 392.86 398.602 392.86 398.602" stroke="black" stroke-width="4.99593"/>
<path d="M186.5 260.394C169.012 288.712 137.628 301.913 116.403 289.878C95.1776 277.844 92.1481 245.132 109.636 216.814C127.124 188.496 158.508 175.295 179.733 187.33C200.959 199.364 203.988 232.076 186.5 260.394Z" fill="white" stroke="black" stroke-width="2.9976"/>
<path d="M184.753 246.206C173.069 264.177 152.103 272.553 137.923 264.916C123.743 257.28 121.719 236.521 133.402 218.551C145.086 200.581 166.052 192.204 180.232 199.841C194.412 207.478 196.436 228.236 184.753 246.206Z" fill="#0A718E" stroke="black" stroke-width="1.95244"/>
<path d="M188.495 224.756C188.495 230.603 183.905 235.343 178.244 235.343C172.582 235.343 167.992 230.603 167.992 224.756C167.992 218.908 172.582 214.168 178.244 214.168C183.905 214.168 188.495 218.908 188.495 224.756Z" fill="white"/>
<path d="M393.628 329.975C376.14 358.293 344.756 371.494 323.531 359.459C302.306 347.425 299.276 314.713 316.764 286.395C334.252 258.077 365.636 244.876 386.861 256.911C408.086 268.945 411.116 301.657 393.628 329.975Z" fill="white" stroke="black" stroke-width="2.9976"/>
<path d="M391.881 315.788C380.197 333.758 359.231 342.134 345.051 334.498C330.871 326.861 328.847 306.102 340.53 288.132C352.214 270.162 373.18 261.785 387.36 269.422C401.54 277.059 403.564 297.817 391.881 315.788Z" fill="#0A718E" stroke="black" stroke-width="1.95244"/>
<path d="M395.623 294.337C395.623 300.184 391.033 304.924 385.372 304.924C379.71 304.924 375.12 300.184 375.12 294.337C375.12 288.489 379.71 283.749 385.372 283.749C391.033 283.749 395.623 288.489 395.623 294.337Z" fill="white"/>
<path d="M194.257 310.215C194.257 310.215 199.954 318.338 203.712 321.594C207.415 324.803 210.321 326.839 214.743 329.081C220.888 332.195 227.466 333.394 233.338 334.022C238.991 334.626 243.358 334.17 248.939 333.123C253.549 332.259 260.443 328.182 260.443 328.182" stroke="black" stroke-width="2.39805"/>
<path d="M411.727 140.721C411.727 140.721 412.254 121.532 409.206 112.572C406.568 104.818 401.612 97.7453 395.968 91.6097C386.23 81.0218 375.025 70.515 361.299 65.2573C344.274 58.7356 324.611 57.8634 306.459 60.4659C288.479 63.0438 271.297 70.8447 256.031 80.2302C242.679 88.4391 230.259 98.8489 221.362 111.374C211.387 125.417 203.903 141.862 201.821 158.688C200.062 172.905 202.672 187.868 208.124 201.212C213.102 213.394 220.685 225.415 231.447 233.553C241.339 241.033 254.158 245.631 266.747 246.729C279.96 247.882 294.324 245.824 305.829 239.542C313.575 235.313 319.878 228.146 323.478 220.377C326.545 213.759 327 205.984 326 198.816C325.169 192.862 319.066 182.046 319.066 182.046" fill="#FCD7DF"/>
<path d="M411.727 140.721C411.727 140.721 412.254 121.532 409.206 112.572C406.568 104.818 401.612 97.7453 395.968 91.6097C386.23 81.0218 375.025 70.515 361.299 65.2573C344.274 58.7356 324.611 57.8634 306.459 60.4659C288.479 63.0438 271.297 70.8447 256.031 80.2302C242.679 88.4391 230.259 98.8489 221.362 111.374C211.387 125.417 203.903 141.862 201.821 158.688C200.062 172.905 202.672 187.868 208.124 201.212C213.102 213.394 220.685 225.415 231.447 233.553C241.339 241.033 254.158 245.631 266.747 246.729C279.96 247.882 294.324 245.824 305.829 239.542C313.575 235.313 319.878 228.146 323.478 220.377C326.545 213.759 327 205.984 326 198.816C325.169 192.862 319.066 182.046 319.066 182.046" stroke="black" stroke-width="2.39805"/>
<path d="M383.992 169.469C360.912 186.555 321.62 166.004 285.027 201.212" stroke="black" stroke-width="2.39805"/>
</svg>
